<svg xmlns="http://www.w3.org/2000/svg" viewBox="0 0 512.33 472.86"><defs><mask id="mask" x="-32.86" y="-88.53" width="643" height="561" maskUnits="userSpaceOnUse"><g id="mask-15"><path id="path-14" class="cls-1" d="M-32.86-88.53h643v561h-643z"/></g></mask><mask id="mask-2" x="226.63" y="301.58" width="168.75" height="111.62" maskUnits="userSpaceOnUse"><g id="mask-17"><path id="path-16" class="cls-2" d="M228.63 301.58h124.14a4.51 4.51 0 013.88 2.85l38.56 105.92c.57 1.57-.24 2.85-1.81 2.85H269.26a4.53 4.53 0 01-3.89-2.85l-38.55-105.88c-.57-1.62.24-2.89 1.81-2.89z"/></g></mask><mask id="mask-3" x="262.37" y="384.7" width="124.08" height="19" maskUnits="userSpaceOnUse"><g id="mask-19"><path id="path-18" class="cls-2" d="M271.87 384.7H370c5.25 0 11 4.25 13 9.5 1.91 5.25-.8 9.5-6.05 9.5h-98.2c-5.25 0-11.05-4.25-13-9.5-1.83-5.2.88-9.5 6.12-9.5z"/></g></mask><mask id="mask-4" x="265.19" y="384.7" width="118.45" height="19" maskUnits="userSpaceOnUse"><g id="mask-21"><path id="path-20" class="cls-2" d="M271.87 384.7H370c5.25 0 11 4.25 13 9.5 1.91 5.25-.8 9.5-6.05 9.5h-98.2c-5.25 0-11.05-4.25-13-9.5-1.83-5.2.88-9.5 6.12-9.5z"/></g></mask><mask id="mask-6" x="183.83" y="202.62" width="168.54" height="70.46" maskUnits="userSpaceOnUse"><g id="mask-25"><path id="path-24" class="cls-2" d="M183.83 202.62h142.5l25.64 70.46h-142.5l-25.64-70.46z"/></g></mask><mask id="mask-7" x="183.83" y="202.62" width="168.14" height="70.46" maskUnits="userSpaceOnUse"><g id="mask-28"><path id="path-27" class="cls-2" d="M183.83 202.62h142.5l25.64 70.46h-142.5l-25.64-70.46z"/></g></mask><mask id="mask-9" x="237.41" y="277.48" width="9.38" height="13.46" maskUnits="userSpaceOnUse"><g id="mask-32"><ellipse id="path-31" class="cls-1" cx="242.1" cy="284.21" rx="4.69" ry="6.73"/></g></mask><mask id="mask-10" x="270.75" y="158.68" width="43.04" height="9.5" maskUnits="userSpaceOnUse"><g id="mask-34"><path id="path-33" class="cls-2" d="M299.47 161.47a3.15 3.15 0 012.7 2 1.36 1.36 0 010 1.38 1.38 1.38 0 01-1.23.62 3.13 3.13 0 01-2.7-2 1.34 1.34 0 011.26-2zm8.17 4l-3.82-4h4.75zm-17.27-4h4l1.44 4h-4z"/></g></mask><mask id="mask-11" x="280.19" y="178.08" width="8.64" height="6.33" maskUnits="userSpaceOnUse"><g id="mask-36"><path id="path-35" class="cls-2" d="M285.66 184.41a.42.42 0 00.38-.2.44.44 0 000-.43h-1.24a1 1 0 00.85.63zm1.33-1.9l.85.63.11.32h-5.28l-.11-.32.39-.63-.63-1.74a1.37 1.37 0 01.82-2l-.08-.22a.31.31 0 010-.32.31.31 0 01.28-.15.75.75 0 01.64.47l.08.22a3.34 3.34 0 012.28 2zm-3-2.32l.33.9h-.9l.11.3h.9l.33.91h.3l-.33-.91h.91l-.11-.3h-.91l-.33-.9z"/></g></mask><mask id="mask-12" x="277.6" y="192.72" width="12.96" height="9.5" maskUnits="userSpaceOnUse"><g id="mask-38"><path id="path-37" class="cls-2" d="M281.81 196.68h3.96l-1.26 1.98-2.7-1.98z"/></g></mask><mask id="mask-13" x="362.13" y="64.95" width="71.52" height="108.64" maskUnits="userSpaceOnUse"><g id="mask-47"><path id="path-46" class="cls-2" d="M412.86 173.58c6.17-.28 20.79-27.81 20.79-58.18S422.12 65.64 413.79 65s-22.33 20.38-22.33 50.75 15.23 58.11 21.4 57.83z"/></g></mask><linearGradient id="linear-gradient" x1="-367.57" y1="362.31" x2="-367.42" y2="362.13" gradientTransform="matrix(148.01 0 0 -63.29 54659 23161.38)" gradientUnits="userSpaceOnUse"><stop offset="0" stop-color="#fff"/><stop offset="1" stop-color="#12326b"/></linearGradient><style>.cls-1,.cls-2,.cls-40,.cls-46,.cls-52,.cls-53{fill:#fff}.cls-2,.cls-40,.cls-42,.cls-43,.cls-44,.cls-46,.cls-47,.cls-5,.cls-53,.cls-6{fill-rule:evenodd}.cls-5{fill:#dc6c00}.cls-30,.cls-6{fill:#f5a522}.cls-8{fill:#7b1fa2}.cls-44{fill:#b7c1d2}.cls-12{fill:#f2f2f2}.cls-13{fill:#a6b2c7}.cls-14,.cls-43,.cls-47{fill:#12326b}.cls-15{mask:url(#mask-2)}.cls-17{fill:#0091ff}.cls-20,.cls-32{fill:none}.cls-20{stroke:#bdbdbd}.cls-21{fill:#424242}.cls-40,.cls-43{opacity:.1}.cls-40,.cls-43,.cls-46,.cls-47,.cls-52,.cls-53{isolation:isolate}.cls-47{opacity:.2}.cls-27{mask:url(#mask-7)}.cls-28{opacity:.5}.cls-36{fill:#212121}.cls-42,.cls-45{fill:#d0d6e1}.cls-46{opacity:.3}.cls-52{opacity:.56}.cls-53{opacity:.7}.cls-56{fill:#0b1c49}.cls-57{fill:#58b5fc}</style></defs><g id="Layer_10" data-name="Layer 10"><g mask="url(#mask)"><path id="z" d="M387.18 62.69c-42.24-50-90.81-14.66-190.72-6.58-36 2.94-59.81-13.26-104.13-2.48C30.37 73 27.78 131.73 71.93 156c2.27 1.24 12.81 7.22 15.39 9.08 88.7 63.86 7.7 94.13-20.4 118.08C29.39 314 38.2 380.81 83 414c28.67 19.71 132.26 52 214.64 19.1 98.21-62.94 131.91-29.43 173.3-75.07 65.39-83.75-44.82-107.63-69.06-180-16.1-53.34 34.53-47.75-14.7-115.34z" fill="#0e2856"/></g><path class="cls-5" d="M66.15 202.88c9-10 24.87-14 24.87-14s4 3.45 4.7 4.05c6.25 5.65 3.14 19.26-6.94 30.41S65.47 239 59.22 233.3c-.52-.47-5.12-4.39-5.12-4.39s2.81-15.81 12.05-26"/><path class="cls-6" d="M61.53 198.87c10.08-11.15 23.32-15.61 29.57-10s3.15 19.27-6.93 30.42-23.32 15.61-29.57 10-3.15-19.29 6.93-30.42"/><path class="cls-2" d="M73.09 213.09a1.72 1.72 0 01.41 2.57c-2 3-7.82 2.36-7.82 2.36l3.76-6.41a9.67 9.67 0 013.65 1.48M79 200.62a1.72 1.72 0 01.32 2.23c-1.2 2.58-6.35 3-6.35 3l3.52-6.14a5.16 5.16 0 012.51.94m6.21-7.18l-2.52-.27-2.16 3.09-2.83-.67 1.61-2.7-1.71-.35-2.33 3.43-3.4.12-1.47 3 2.85-.1-11.6 19.19h-3.16l-2 3.25 4 .42-1.72 3.62 2.61.42 1.83-3.75 3 .1-2.36 4.1 2.27.51a44.43 44.43 0 002.59-4.07c2.47.67 16.49-7.66 6.77-13.31 6.27-2.65 13.8-8.75 7.28-12.25 2.43-4 2.44-3.81 2.44-3.81"/><path class="cls-5" d="M460.69 246.89c-6.59-6.56-17.75-8.68-17.75-8.68s-2.71 2.57-3.15 3c-4.18 4.19-1.6 13.53 5.76 20.86s16.72 9.86 20.9 5.67c.34-.35 3.42-3.27 3.42-3.27s-2.44-10.88-9.18-17.59"/><path class="cls-6" d="M463.78 243.91c-7.36-7.33-16.72-9.87-20.9-5.68s-1.6 13.54 5.76 20.86 16.72 9.87 20.9 5.67 1.6-13.53-5.76-20.85"/><path class="cls-2" d="M459.11 251.93a1.21 1.21 0 011.81.21c1.58 1.89 0 5.67 0 5.67l-3.56-3.7a7 7 0 011.71-2.18m-7.19-6.26a1.21 1.21 0 011.56.2c1.5 1.28.73 4.8.73 4.8l-3.42-3.5a3.64 3.64 0 011.13-1.5m-3.59-5.49l-.67 1.63 1.64 2-1 1.77-1.46-1.58-.57 1.08 1.87 2.2-.6 2.3 1.7 1.53.5-1.93 10.57 11.34-.61 2.12 1.78 1.93 1.08-2.6 2.09 1.83.8-1.67-2.15-1.92.65-2 2.28 2.34.8-1.42a30.55 30.55 0 00-2.22-2.49c.93-1.53-1.88-12.46-7.59-7-.54-4.69-3.14-10.87-6.77-7.15a16.88 16.88 0 01-2.08-2.34"/><path class="cls-5" d="M195.56 73c-8.55-3.67-19.7-1.52-19.7-1.52s-1.57 3.38-1.82 4c-2.34 5.44 3.5 13.17 13.05 17.27s19.17 3 21.51-2.44c.19-.45 2-4.3 2-4.3s-6.28-9.21-15-13"/><path class="cls-6" d="M197.33 69.07c-9.54-4.09-19.18-3-21.51 2.44s3.5 13.17 13 17.26 19.17 3 21.51-2.43-3.5-13.17-13-17.27"/><path class="cls-2" d="M196 78.26a1.21 1.21 0 011.76-.48c2.12 1.22 2.07 5.22 2.07 5.22l-4.67-2.13a7 7 0 01.79-2.65m-9-3.18a1.21 1.21 0 011.52-.39c1.86.65 2.45 4.2 2.45 4.2l-4.47-2a3.62 3.62 0 01.5-1.82m-5.35-3.73v1.77l2.27 1.28-.28 2-2-.91-.14 1.21L184 78l.3 2.36 2.14.8-.24-2 14 6.64.22 2.19 2.37 1.14v-2.81l2.61.92.13-1.84-2.71-1-.12-2.08 3 1.33.21-1.61a29.56 29.56 0 00-3-1.5c.31-1.76-6.34-10.89-9.64-3.71-2.23-4.17-6.92-9-8.93-4.15-2.93-1.39-2.79-1.42-2.79-1.42"/><path d="M150 418.06c12.4-3.34 19-18.93 14.79-34.81s-17.7-26.05-30.09-22.7c-2.8.75-9 1-11.18 2.9-7.38 6.4-6.89 19.61-3.62 31.91 3.15 11.83 6.07 21.84 15.22 24.11 3.15.78 11.74-.56 14.88-1.41z" fill="#9012fe" fill-rule="evenodd"/><ellipse id="Oval-Copy-8" class="cls-8" cx="134.09" cy="390.9" rx="23.25" ry="29.76" transform="rotate(-15 134.112 390.89)"/><path id="eth-copy" d="M131.36 369.44c5.25 7.9 9.9 13.08 14.71 19a.71.71 0 01-.11 1l-10.71 8.71a.61.61 0 01-.33.14.65.65 0 01-.39-.06l-12-5.8a.7.7 0 01-.35-.91c1.59-7.07 4.54-14.47 8-22a.66.66 0 01.55-.41.67.67 0 01.63.33zm-7.11 27l10.69 5.08a.65.65 0 00.43.09.75.75 0 00.35-.16c3.25-2.82 6.45-5.67 9.68-8.51a.37.37 0 01.38 0 .39.39 0 01.16.53c-3.16 6.81-6.13 12.82-8.65 17.12a.67.67 0 01-.53.36.59.59 0 01-.3 0 .65.65 0 01-.27-.17c-4.61-3-8.94-8.24-13.21-14a.39.39 0 01.44-.63z" fill="#b2b2b2" fill-rule="evenodd"/><g id="Group-9"><ellipse id="Oval-Copy-15" class="cls-8" cx="337.16" cy="39.95" rx="15.53" ry="19.83" transform="rotate(-28 337.153 39.948)"/><ellipse cx="340.96" cy="37.98" rx="15.53" ry="19.83" transform="rotate(-28 340.967 37.981)" fill="#9012fe"/><path class="cls-2" d="M336.37 25.25c6.81 4.13 9.91 6.91 12 9.32a.46.46 0 01.08.65l-5.67 7.27a.52.52 0 01-.19.14.5.5 0 01-.27 0l-9-1.59a.47.47 0 01-.37-.54 109.3 109.3 0 002.67-15.06.45.45 0 01.3-.35.45.45 0 01.45.16zm-1 17.8l7.72 1.69a.41.41 0 00.29 0 .42.42 0 00.21-.16l5-7a.24.24 0 01.24-.07.26.26 0 01.19.32c-.63 4.12-1.19 8.25-3.07 12.41a.46.46 0 01-.3.32.44.44 0 01-.2 0 .48.48 0 01-.2-.07c-3.42-2.5-7.08-4.8-10.7-7.13a.26.26 0 01.19-.47z"/></g><path id="Path" d="M171.58 130.27q84.12 5.21 110.34 5.41 16.63.16 22.51 13.53l109.88 273.26c5.4 36.07-24.07 31.56-26.53 31.56H280.67c-17.22 0-30.28-7.67-35.87-27.29-.3-1.07-.71-2.1-1.06-3.16q-20.22-60-89.28-262.18c-6.13-14.93 4.06-31.13 17.12-31.13z" fill="#b7c1d2"/><path class="cls-12" d="M173.83 128.47h114.38q16.65 0 22.51 13.52l101.9 275.68c11.59 27.82-16.08 29.17-18.54 29.17H287c-17.22 0-30.28-7.66-35.86-27.29-.31-1.07-.71-2.1-1.07-3.16q-20.21-60-89.27-262.18c-5.89-15.37-.03-25.74 13.03-25.74z"/><path id="Shape" class="cls-13" d="M189.25 150.62c2 0 3.6-1.8 3.15-4.28s-2.25-4.74-4.5-4.29-3.15 1.81-2.7 4.06 2.06 4.51 4.05 4.51zm12.75-1.86a2.11 2.11 0 001.92-2.69c-.27-1.55-1.37-3-2.74-2.68a1.9 1.9 0 00-1.64 2.54c.3 1.42 1.28 2.83 2.46 2.83z"/><path class="cls-14" d="M172.93 158.68h133.75l91.87 253.41H262.09l-89.16-253.41z"/><path class="cls-13" d="M213.8 137h42.34c2.25 0 3.15 3.15.45 3.15h-42.34c-2.25.04-2.71-3.15-.45-3.15zm104.72 294h42.33c2.25 0 3.15 3.16.45 3.16H319c-2.25 0-2.7-3.18-.45-3.18z"/><path id="home-r-2" class="cls-1" d="M281.81 196.68h3.96l-1.26 1.98-2.7-1.98z"/><path id="home-p-2" class="cls-1" d="M285.66 184.41a.42.42 0 00.38-.2.44.44 0 000-.43h-1.24a1 1 0 00.85.63zm1.33-1.9l.85.63.11.32h-5.28l-.11-.32.39-.63-.63-1.74a1.37 1.37 0 01.82-2l-.08-.22a.31.31 0 010-.32.31.31 0 01.28-.15.75.75 0 01.64.47l.08.22a3.34 3.34 0 012.28 2zm-3-2.32l.33.9h-.9l.11.3h.9l.33.91h.3l-.33-.91h.91l-.11-.3h-.91l-.33-.9z"/><path id="home-n-2" class="cls-1" d="M299.47 161.47a3.15 3.15 0 012.7 2 1.36 1.36 0 010 1.38 1.38 1.38 0 01-1.23.62 3.13 3.13 0 01-2.7-2 1.34 1.34 0 011.26-2zm8.17 4l-3.82-4h4.75zm-17.27-4h4l1.44 4h-4z"/><ellipse id="home-j-2" class="cls-1" cx="242.1" cy="284.21" rx="4.69" ry="6.73" transform="rotate(-50.16 242.104 284.215)"/><path id="home-g-4" class="cls-1" d="M183.83 202.62h142.5l25.64 70.46h-142.5l-25.64-70.46z"/><path id="home-d-3" class="cls-1" d="M271.87 384.7H370c5.25 0 11 4.25 13 9.5 1.91 5.25-.8 9.5-6.05 9.5h-98.2c-5.25 0-11.05-4.25-13-9.5-1.83-5.2.88-9.5 6.12-9.5z"/><path class="cls-12" d="M167.84 158.68h142.5l92.35 253.74h-142.5l-92.35-253.74z"/><path class="cls-14" d="M167.84 158.68h142.5l69.73 191.58a237.85 237.85 0 01-67.8 9.5q-35.62 0-74.7-9.5z"/><path id="home-a-3" class="cls-1" d="M228.63 301.58h124.14a4.51 4.51 0 013.88 2.85l38.56 105.92a3 3 0 01.18 1.11c0 .2.09.54-.11.56-1.34.1-32.32 0-64.38 0s-63.81.17-64.39 0l-.06-.06a4.24 4.24 0 01-1.08-1.6l-38.55-105.89c-.57-1.62.24-2.89 1.81-2.89z"/><g class="cls-15"><path id="home-d-4" d="M271.87 384.7H370c5.25 0 11 4.25 13 9.5 1.91 5.25-.8 9.5-6.05 9.5h-98.2c-5.25 0-11.05-4.25-13-9.5-1.83-5.2.88-9.5 6.12-9.5z"/><path id="home-d-5" class="cls-1" d="M271.87 384.7H370c5.25 0 11 4.25 13 9.5 1.91 5.25-.8 9.5-6.05 9.5h-98.2c-5.25 0-11.05-4.25-13-9.5-1.83-5.2.88-9.5 6.12-9.5z"/><g mask="url(#mask-3)" id="Clipped"><path class="cls-17" d="M262.37 384.7h117.17l6.91 19H269.29l-6.92-19z"/></g><g mask="url(#mask-4)"><path class="cls-1" d="M320.3 395.57c.3.83-.06 1.29-1.14 1.29h-1.42a.13.13 0 01-.13-.1l-1.55-4.24c0-.06 0-.1.06-.1h1.43a1.74 1.74 0 011.7 1.09c.16.46.07.82-.25 1a1.84 1.84 0 011.3 1.06zm-2.58-2.57h-.78l.43 1.18h.77c.43 0 .63-.22.48-.64a.88.88 0 00-.9-.54zm1.86 2.47a1.12 1.12 0 00-1.17-.71h-.83l.53 1.44h.83c.58 0 .83-.22.64-.77zm4.17-2.95l.95 2.62c.43 1.17 0 1.8-1 1.8a2.5 2.5 0 01-2.29-1.8l-1-2.62c0-.06 0-.1.06-.1h.5a.14.14 0 01.13.1l1 2.62a1.49 1.49 0 001.36 1.14c.57 0 .81-.38.53-1.14l-1-2.62c0-.06 0-.1.06-.1h.5a.13.13 0 01.12 0 .16.16 0 01.08.1zm4.64.02l-.5 2.21.74 2c0 .06 0 .1-.06.1h-.5a.13.13 0 01-.13-.1l-.74-2-2.06-2.21a.08.08 0 010-.12h.52a.17.17 0 01.14.07l1.53 1.61.36-1.61s0-.07.09-.07h.53a.09.09 0 01.07 0 .11.11 0 01.01.12z"/></g></g><g class="cls-15"><path class="cls-14" d="M250.76 313.57l1.93 5.31c0 .07 0 .11-.07.11H252a.15.15 0 01-.16-.11l-.81-2.24h-2.33l.81 2.24c0 .07 0 .11-.08.11h-.62a.15.15 0 01-.16-.11l-1.93-5.31c0-.07 0-.12.07-.12h.63a.18.18 0 01.16.12l.83 2.3h2.33l-.83-2.3c0-.07 0-.12.07-.12h.63a.18.18 0 01.16.12zm2.24 3.48c-.41-1.14.14-2 1.25-2a3.16 3.16 0 012.73 2c.41 1.13-.15 2-1.26 2a3.13 3.13 0 01-2.72-2zm3.18 0a1.92 1.92 0 00-1.65-1.26c-.67 0-1 .53-.73 1.26a1.9 1.9 0 001.64 1.25c.67 0 1-.53.74-1.25zm7.16-1.8v3.65c0 .06 0 .09-.11.09h-.59a.24.24 0 01-.18-.09l-2-2.7v2.7c0 .06 0 .09-.1.09h-.61a.21.21 0 01-.17-.09l-2.69-3.65c-.07-.09 0-.13 0-.13h.58a.23.23 0 01.18.09l2 2.83v-2.91h.67a.19.19 0 01.1.08l2.08 2.79v-2.83c0-.06 0-.09.11-.09h.59c.09.04.14.08.14.17zm9.8 1.37l.82 2.26c0 .07 0 .11-.07.11h-.6a.17.17 0 01-.16-.11l-.78-2.14a1.24 1.24 0 00-1.15-1 .65.65 0 00-.6.24.64.64 0 00-.09.64l.8 2.21c0 .07 0 .11-.07.11h-.6a.17.17 0 01-.16-.11l-.78-2.14a1.23 1.23 0 00-1.14-1 .69.69 0 00-.56.24.67.67 0 00-.15.59l.82 2.26c0 .07 0 .11-.08.11H268a.17.17 0 01-.17-.11l-1.32-3.65c0-.07 0-.11.07-.11h.56a.17.17 0 01.16.11l.22.53a1 1 0 011-.73 2 2 0 011.5.75 1 1 0 011.12-.75 2.15 2.15 0 012 1.69zm3.94-1.39l1.32 3.65c0 .07 0 .11-.07.11h-.56a.17.17 0 01-.17-.11l-.2-.46a.93.93 0 01-.94.68 2.19 2.19 0 01-2-1.61l-.82-2.26c0-.07 0-.11.08-.11h.59a.16.16 0 01.16.11l.78 2.14a1.28 1.28 0 001.18 1 .69.69 0 00.56-.25.65.65 0 00.12-.6l-.82-2.26c0-.07 0-.11.07-.11h.6a.2.2 0 01.12.08zm4.83 2.63h.18l.47.33a.17.17 0 01.07.17 1.34 1.34 0 01-1.27.69 3.12 3.12 0 01-2.69-2c-.41-1.13.12-2 1.23-2a2.8 2.8 0 011.74.68c.07.06.09.12.06.17l-.23.33c0 .06-.1 0-.18 0a1.94 1.94 0 00-1.1-.42c-.69 0-1 .54-.72 1.25a1.85 1.85 0 001.62 1.23.87.87 0 00.82-.43zm4.48-1.24l.82 2.26c0 .07 0 .11-.08.11h-.59a.15.15 0 01-.16-.11l-.78-2.14a1.24 1.24 0 00-1.15-1 .69.69 0 00-.71.83l.82 2.26c0 .07 0 .11-.07.11h-.6a.17.17 0 01-.16-.11l-2-5.55c0-.07 0-.11.08-.11h.59a.18.18 0 01.17.11l.88 2.43a1 1 0 011-.73 2.17 2.17 0 011.94 1.64zm7.61.77c.38 1-.07 1.6-1.43 1.6h-1.78a.17.17 0 01-.16-.11l-1.93-5.31c0-.07 0-.12.08-.12h1.79a2.15 2.15 0 012.11 1.36c.21.57.1 1-.31 1.2a2.31 2.31 0 011.63 1.38zm-3.23-3.16h-1l.53 1.46h1c.54 0 .79-.27.6-.79a1.09 1.09 0 00-1.15-.67zm2.33 3.08a1.4 1.4 0 00-1.46-.89h-1l.65 1.8h1c.73 0 1-.27.81-.91zm.46-3.51c-.1-.27 0-.48.31-.48a.75.75 0 01.65.48c.1.27 0 .48-.3.48a.75.75 0 01-.66-.48zm.66 1.32h.59a.18.18 0 01.17.11l1.32 3.65c0 .07 0 .11-.07.11h-.6a.17.17 0 01-.16-.11l-1.33-3.65c0-.07 0-.11.08-.11zm3.92.11l.17.45c0 .08 0 .12-.08.12h-.63l1.12 3.08c0 .07 0 .11-.08.11h-.59a.15.15 0 01-.16-.11l-1.12-3.08h-.63a.16.16 0 01-.16-.12l-.16-.45c0-.07 0-.11.07-.11h.64l-.39-1.07c0-.08 0-.12.07-.12h.6a.18.18 0 01.16.12l.39 1.07h.64a.17.17 0 01.14.11zm4.55 2.63h.18l.47.33a.17.17 0 01.07.17 1.34 1.34 0 01-1.27.69 3.12 3.12 0 01-2.69-2c-.41-1.13.12-2 1.23-2a2.8 2.8 0 011.74.68c.07.06.09.12.06.17l-.23.33c0 .06-.09 0-.18 0a1.94 1.94 0 00-1.1-.42c-.69 0-1 .54-.72 1.25a1.85 1.85 0 001.62 1.23.87.87 0 00.82-.43zm.92-.81c-.41-1.14.14-2 1.25-2a3.16 3.16 0 012.73 2c.41 1.13-.15 2-1.26 2a3.13 3.13 0 01-2.72-2zm3.18 0a1.92 1.92 0 00-1.65-1.26c-.67 0-1 .53-.73 1.26a1.9 1.9 0 001.64 1.25c.67 0 1-.53.74-1.25zm.54-3.25c-.1-.27 0-.48.31-.48a.76.76 0 01.65.48c.09.27 0 .48-.3.48a.75.75 0 01-.66-.48zm.66 1.32h.59a.16.16 0 01.16.11l1.33 3.65c0 .07 0 .11-.08.11h-.59a.15.15 0 01-.16-.11l-1.33-3.65c-.02-.07.01-.11.09-.11zm5.84 1.5l.82 2.26c0 .07 0 .11-.07.11H314a.17.17 0 01-.16-.11l-.78-2.14a1.23 1.23 0 00-1.14-1 .69.69 0 00-.71.83l.82 2.26c0 .07 0 .11-.08.11h-.59a.15.15 0 01-.16-.11l-1.33-3.65c0-.07 0-.11.08-.11h.56a.17.17 0 01.16.11l.22.53a1 1 0 011-.73 2.16 2.16 0 012 1.64zm5.96-3.29l2 5.55c0 .07 0 .11-.08.11h-.51a.17.17 0 01-.16-.11l-.2-.45a1 1 0 01-1 .62 3 3 0 01-2.61-2c-.41-1.13.05-2 1.15-2a2.26 2.26 0 011.45.59l-.84-2.3c0-.07 0-.11.08-.11h.59a.16.16 0 01.18.1zm.55 3.72a1.89 1.89 0 00-1.63-1.26c-.68 0-1 .54-.71 1.26a1.82 1.82 0 001.62 1.24c.69 0 1-.54.72-1.24zm1.74 0c-.41-1.14.13-2 1.25-2a3.16 3.16 0 012.73 2c.4 1.13-.15 2-1.26 2a3.13 3.13 0 01-2.72-2zm3.18 0a1.92 1.92 0 00-1.65-1.26c-.67 0-1 .53-.73 1.26a1.9 1.9 0 001.64 1.25c.67 0 1-.53.74-1.25zm6.96-1.8l-.16 5.15a.1.1 0 010 .07.11.11 0 01-.07 0h-.6a.15.15 0 01-.11 0 .12.12 0 010-.1l.06-1.35-2.86-3.76c-.06-.09 0-.13 0-.13h.6a.23.23 0 01.18.09l2.09 2.82v-2.82c0-.06.05-.09.11-.09h.54c.14-.01.22.03.22.12zm1.09 1.8c-.41-1.14.14-2 1.25-2a3.16 3.16 0 012.73 2c.41 1.13-.15 2-1.25 2a3.14 3.14 0 01-2.73-2zm3.18 0a1.9 1.9 0 00-1.65-1.26c-.66 0-1 .53-.73 1.26a1.91 1.91 0 001.65 1.25c.66 0 .99-.53.73-1.25zm4.51-1.82l1.32 3.65c0 .07 0 .11-.07.11h-.56a.17.17 0 01-.17-.11l-.19-.46a1 1 0 01-.95.68 2.19 2.19 0 01-2-1.61l-.82-2.26c0-.07 0-.11.08-.11h.55a.16.16 0 01.16.11l.78 2.14a1.28 1.28 0 001.18 1 .69.69 0 00.56-.25.65.65 0 00.12-.6l-.82-2.26c0-.07 0-.11.07-.11h.6a.16.16 0 01.16.08zm-60.66 9.52v3.65c0 .06 0 .09-.1.09h-.6a.24.24 0 01-.18-.09l-2-2.7v2.7c0 .06 0 .09-.11.09h-.6a.24.24 0 01-.18-.09l-2.69-3.65c-.06-.09 0-.14.05-.14h.57a.22.22 0 01.18.1l2 2.83v-2.83a.06.06 0 010-.08h.67a.21.21 0 01.11.08l2.07 2.83v-2.83c0-.07 0-.1.11-.1h.58a.12.12 0 01.08 0 .13.13 0 01.04.14zm4.37-.02l1.32 3.64c0 .07 0 .12-.07.12h-.52a.17.17 0 01-.16-.12l-.2-.44a1 1 0 01-1 .62 3 3 0 01-2.62-2c-.41-1.13.05-2 1.16-2a2.32 2.32 0 011.51.64l-.14-.45c0-.07 0-.12.08-.12h.52a.16.16 0 01.12.11zm-.15 1.82a1.89 1.89 0 00-1.63-1.26c-.67 0-1 .53-.71 1.26a1.85 1.85 0 001.62 1.24c.69 0 1-.54.72-1.24zm5.18-.43l.82 2.25c0 .07 0 .12-.08.12h-.59a.16.16 0 01-.16-.12l-.78-2.13a1.23 1.23 0 00-1.14-1 .73.73 0 00-.57.24.7.7 0 00-.15.59l.83 2.25c0 .07 0 .12-.08.12h-.59a.17.17 0 01-.17-.12l-1.32-3.64c0-.07 0-.12.07-.12h.57a.18.18 0 01.16.12l.22.52a1 1 0 011-.72 2.16 2.16 0 012 1.64zm2.53-1.39l.16.45c0 .07 0 .12-.07.12h-.64l1.12 3.07c0 .07 0 .12-.08.12h-.62a.16.16 0 01-.16-.12l-1.12-3.07h-.63a.16.16 0 01-.16-.12l-.17-.45c0-.07 0-.12.08-.12h.63l-.39-1.06c0-.08 0-.12.08-.12h.59a.17.17 0 01.16.12l.39 1.06h.7a.18.18 0 01.13.12zm5.25 0l.17.45c0 .07 0 .12-.08.12H297l1.16 3.07c0 .07 0 .12-.08.12h-.59a.17.17 0 01-.17-.12l-1.16-3.07h-.64a.17.17 0 01-.16-.12l-.16-.45c0-.07 0-.12.07-.12h.64l-.39-1.06c0-.08 0-.12.07-.12h.6a.18.18 0 01.16.12l.39 1.06h.63a.18.18 0 01.15.12zm1.31 1.82c-.41-1.14.14-2 1.25-2a3.16 3.16 0 012.73 2c.41 1.13-.14 2-1.25 2a3.14 3.14 0 01-2.73-2zm3.18 0a1.9 1.9 0 00-1.65-1.26c-.66 0-1 .53-.73 1.26a1.91 1.91 0 001.65 1.25c.66 0 .99-.53.72-1.25zm7.99.01c.4 1.1-.07 2-1.17 2a2.28 2.28 0 01-1.49-.62l.12.44c0 .07 0 .12-.07.12h-.52a.16.16 0 01-.16-.12l-2-5.54c0-.07 0-.12.08-.12h.59a.18.18 0 01.16.12l.84 2.3a1 1 0 011-.59 3 3 0 012.62 2.01zm-.8 0a1.88 1.88 0 00-1.64-1.26c-.68 0-1 .57-.71 1.26a1.86 1.86 0 001.62 1.24c.71 0 1-.54.71-1.25zm4.43-1.83l1.32 3.64c0 .07 0 .12-.07.12h-.57a.17.17 0 01-.16-.12l-.2-.46a1 1 0 01-.95.68 2.2 2.2 0 01-2-1.6l-.82-2.26c0-.07 0-.12.07-.12h.6a.18.18 0 01.16.12l.78 2.14a1.28 1.28 0 001.17 1 .68.68 0 00.69-.85l-.83-2.26c0-.07 0-.12.08-.12h.59a.18.18 0 01.14.09zm4.68.02l-.17 5.15a.1.1 0 010 .07.11.11 0 01-.07 0h-.59a.15.15 0 01-.11 0 .12.12 0 010-.1l.06-1.35-2.86-3.76c-.06-.09 0-.14 0-.14h.6a.22.22 0 01.18.1l2.08 2.82v-2.82c0-.07 0-.1.11-.1h.67a.11.11 0 01.12 0 .17.17 0 01-.02.13zm3.99-.4c.27.75 0 1.2-.83 1.65l.25.79c0 .07 0 .12-.07.12h-.46a.17.17 0 01-.16-.12l-.47-1.13c0-.07 0-.11.06-.14.85-.31 1-.65.84-1.1a1.22 1.22 0 00-1.16-.72 1.17 1.17 0 00-1 .52c-.06.08-.14.08-.25 0l-.36-.31c-.09-.08-.13-.16-.1-.24a1.48 1.48 0 011.43-.78 2.48 2.48 0 012.28 1.46zm.05 3.76c.09.27 0 .48-.31.48a.75.75 0 01-.66-.48.32.32 0 010-.34.34.34 0 01.31-.14.78.78 0 01.66.48z"/></g><path d="M253.19 337.71c-3.39 0-5.14 2.75-3.91 6.14s5 6.13 8.37 6.13h13.49c3.39 0 5.14-2.75 3.9-6.13s-5-6.14-8.37-6.14z" stroke="#0091ff" fill="none"/><path class="cls-17" d="M256.39 344.59l.11.31v.1h-2a.11.11 0 01-.11-.08l-1.39-3.73v-.09h2a.14.14 0 01.12.09l.11.3v.06h-1.5l.41 1.12h1.42a.13.13 0 01.11.09l.11.3v.09h-1.42l.48 1.33h1.52a.12.12 0 01.11.08zm2.41-3.4l.84 2.29c.37 1 0 1.57-.84 1.57a2.15 2.15 0 01-2-1.57l-.84-2.29c0-.05 0-.09.06-.09h.35a.13.13 0 01.11.09l.83 2.29a1.43 1.43 0 001.29 1.08c.52 0 .77-.35.5-1.08l-.83-2.29v-.09h.35a.14.14 0 01.11 0 .14.14 0 01.07.09zm4.71 3.81h-.37a.17.17 0 01-.12-.06l-1.42-1.38h-.53l.49 1.36v.08h-.42a.11.11 0 01-.11-.08l-1.35-3.71v-.09h1.07a1.84 1.84 0 011.76 1.22c.21.58.06 1-.47 1.17l1.43 1.39c.12.04.11.1.04.1zm-2.62-1.91h.61c.46 0 .78-.2.58-.75a1.12 1.12 0 00-1.12-.74h-.62zm6.98.62c.3.83-.12 1.34-.86 1.34a2 2 0 01-1.27-.53v-.11l.16-.17h.1a1.31 1.31 0 00.84.34c.45 0 .73-.35.54-.88a1.39 1.39 0 00-1.15-.85.55.55 0 00-.57.32h-.1l-.29-.1a.16.16 0 01-.1-.11l-.18-1.82c0-.05 0-.08.06-.08h1.55a.13.13 0 01.11.09l.09.25v.08h-1.27l.11 1.08a.75.75 0 01.47-.09 2 2 0 011.76 1.24zm3.35-.65c.46 1.28.1 2-.76 2a2.6 2.6 0 01-2.2-2c-.47-1.29-.11-2 .75-2s1.74.71 2.21 2zm-2.49 0c.34.93.93 1.54 1.57 1.54s.77-.61.43-1.54-.93-1.59-1.59-1.59-.75.65-.41 1.59z"/><path class="cls-20" d="M282.48 337.71c-3.39 0-5.14 2.75-3.9 6.14s5 6.13 8.36 6.13h20.59c3.39 0 5.13-2.75 3.9-6.13s-5-6.14-8.37-6.14z"/><path class="cls-21" d="M285.78 345l.11.31s0 .08-.05.08h-1.94a.12.12 0 01-.12-.08l-1.35-3.71c0-.05 0-.08.06-.08h1.93a.13.13 0 01.12.08l.11.3v.1h-1.51l.41 1.13H285a.12.12 0 01.11.08l.11.3s0 .09-.05.09h-1.42l.49 1.33h1.51a.12.12 0 01.06.08zm2.42-3.42l.83 2.29c.37 1 0 1.57-.84 1.57a2.15 2.15 0 01-2-1.57l-.83-2.29v-.08h.35a.12.12 0 01.11.08l.83 2.29A1.43 1.43 0 00288 345c.52 0 .76-.35.49-1.08l-.83-2.29c0-.05 0-.08.05-.08h.29a.14.14 0 01.11 0 .14.14 0 01.09.03zm4.71 3.79h-.39a.22.22 0 01-.12-.05l-1.4-1.39h-.54l.49 1.36s0 .08-.05.08h-.35a.11.11 0 01-.11-.08l-1.35-3.71c0-.05 0-.08.05-.08h1.07a1.85 1.85 0 011.77 1.21c.21.58.06 1-.48 1.17l1.44 1.39c.06.06.06.1-.03.1zm-2.63-1.9h.61c.46 0 .78-.2.58-.75a1.12 1.12 0 00-1.12-.74h-.62zm4.8-1.89l1.35 3.71v.08h-.33a.12.12 0 01-.12-.08l-1.22-3.37h-.62a.11.11 0 01-.1-.09l-.1-.25c0-.05 0-.08.05-.08h1s.07 0 .09.08zm4.36 1.89c.47 1.28.11 2-.75 2a2.6 2.6 0 01-2.2-2c-.47-1.29-.11-2 .75-2s1.76.69 2.2 2zm-2.48 0c.34.94.93 1.54 1.56 1.54s.78-.6.44-1.54-.93-1.54-1.56-1.54-.78.54-.44 1.54zm6.04 0c.47 1.28.11 2-.75 2a2.6 2.6 0 01-2.2-2c-.47-1.29-.11-2 .75-2s1.76.69 2.2 2zm-2.48 0c.34.94.93 1.54 1.57 1.54s.77-.6.43-1.54-.93-1.54-1.56-1.54-.75.54-.41 1.54zm6.11 0c.46 1.28.1 2-.76 2s-1.73-.71-2.2-2-.11-2 .75-2 1.72.69 2.21 2zm-2.49 0c.34.94.93 1.54 1.57 1.54s.77-.6.43-1.54-.93-1.54-1.56-1.54-.78.54-.44 1.54z"/><path class="cls-20" d="M318.89 337.71c-3.38 0-5.13 2.75-3.9 6.14s5 6.13 8.37 6.13h34.44c3.39 0 5.13-2.75 3.9-6.13s-5-6.14-8.37-6.14z"/><path class="cls-21" d="M321.24 343.06c-.4-1.11.16-2 1.26-2a3.12 3.12 0 012.7 2 1.34 1.34 0 01-1.25 2 3.11 3.11 0 01-2.71-2zm3.53 0a2.44 2.44 0 00-2.12-1.58c-.87 0-1.3.69-1 1.58a2.42 2.42 0 002.12 1.57 1 1 0 001-1.57zm5.23-.7v2.55s0 .07-.08.07h-.27a.14.14 0 01-.12-.07l-1.57-2.1v2.1h-.32a.14.14 0 01-.12-.07l-1.9-2.55v-.09h.24a.16.16 0 01.12.06l1.6 2.19v-2.24h.31a.08.08 0 01.07.05l1.62 2.19v-2.19s0-.06.08-.06h.24c.1.07.1.1.1.16zm3.31.92l.59 1.62h-.25a.12.12 0 01-.12-.08l-.57-1.59a1 1 0 00-.9-.73.59.59 0 00-.45.18.58.58 0 00-.14.46l.61 1.68s0 .08-.06.08h-.25a.11.11 0 01-.11-.08l-.93-2.55s0-.08.06-.08h.21a.14.14 0 01.12.08l.16.38a.69.69 0 01.73-.52 1.44 1.44 0 011.3 1.15zm4.74-.93l.92 2.55s0 .08-.05.08h-.23a.11.11 0 01-.11-.08l-.15-.35a.79.79 0 01-.79.47 2.11 2.11 0 01-1.84-1.39c-.28-.79 0-1.42.82-1.42a1.7 1.7 0 011.14.5l-.11-.36s0-.08.06-.08h.22a.13.13 0 01.12.08zm.07 1.27a1.58 1.58 0 00-1.33-1c-.56 0-.8.44-.59 1a1.53 1.53 0 001.34 1c.6 0 .79-.43.6-1zm5.24-.34l.58 1.62s0 .08-.05.08h-.25a.11.11 0 01-.11-.08l-.58-1.59a1 1 0 00-.89-.73.52.52 0 00-.57.72l.58 1.6s0 .08-.05.08h-.25a.11.11 0 01-.11-.08l-.58-1.59a1 1 0 00-.89-.73.57.57 0 00-.45.18.55.55 0 00-.15.46l.61 1.68s0 .08-.05.08h-.25a.12.12 0 01-.12-.08l-.92-2.55s0-.08.05-.08h.23a.12.12 0 01.11.08l.16.38a.7.7 0 01.73-.52 1.31 1.31 0 011.07.55.72.72 0 01.8-.55 1.45 1.45 0 011.35 1.07zm.85.34c-.29-.79.08-1.41.86-1.41a2.2 2.2 0 011.89 1.41c.28.79-.09 1.41-.86 1.41a2.16 2.16 0 01-1.89-1.41zm2.35 0a1.57 1.57 0 00-1.36-1c-.54 0-.81.44-.59 1a1.54 1.54 0 001.35 1c.55.04.81-.4.6-1zm2.89-1.27l.93 2.55s0 .08-.05.08h-.19a.11.11 0 01-.11-.08l-.15-.34a.68.68 0 01-.69.49 1.48 1.48 0 01-1.4-1.09l-.58-1.61s0-.08.05-.08h.25a.12.12 0 01.11.08l.58 1.58a1 1 0 00.92.75.53.53 0 00.44-.19.58.58 0 00.12-.47l-.6-1.67v-.08h.25a.13.13 0 01.12.08zm3.44.93l.59 1.62s0 .08-.06.08h-.28a.12.12 0 01-.12-.08l-.57-1.59a1 1 0 00-.9-.73.57.57 0 00-.45.18.55.55 0 00-.15.46l.61 1.68s0 .08-.05.08h-.25a.11.11 0 01-.11-.08l-.93-2.55s0-.08.06-.08h.22a.14.14 0 01.12.08l.16.38a.69.69 0 01.73-.52 1.43 1.43 0 011.38 1.07zm1.69-.93l.07.19h-.51l.83 2.28s0 .08-.05.08h-.25a.12.12 0 01-.12-.08l-.82-2.28h-.45a.11.11 0 01-.11-.08l-.07-.19v-.08h.45l-.28-.75s0-.08.06-.08h.25a.12.12 0 01.11.08l.27.75h.45a.13.13 0 01.12.08z"/><path d="M254.74 359.37h114a2.51 2.51 0 012.16 1.63l5.77 15.83a1.07 1.07 0 010 1.08 1.09 1.09 0 01-1 .51h-114a2.51 2.51 0 01-2.16-1.59L253.75 361a1.07 1.07 0 011-1.58z" fill="#e7eaf0"/><path class="cls-14" d="M296.07 369.16c.31.83-.05 1.29-1.14 1.29h-1.42a.13.13 0 01-.13-.1l-1.55-4.24c0-.06 0-.1.06-.1h1.44a1.73 1.73 0 011.67 1.09c.17.46.08.82-.25 1a1.84 1.84 0 011.32 1.06zm-2.58-2.52h-.77l.42 1.17h.78c.43 0 .63-.22.47-.64a.86.86 0 00-.9-.53zm1.86 2.46a1.12 1.12 0 00-1.17-.71h-.83l.53 1.44h.83c.58 0 .83-.22.64-.73zm2.99-2.99l.16.43a.09.09 0 010 .07.07.07 0 01-.06 0h-1l1.36 3.71c0 .06 0 .1-.06.1h-.5a.13.13 0 01-.13-.1l-1.36-3.71h-1a.13.13 0 01-.13-.1l-.15-.43c0-.06 0-.1.06-.1h2.65a.14.14 0 01.17.1zm5.49 3.67c.05 0 .07.09 0 .13a1.53 1.53 0 01-1.29.62 3.54 3.54 0 01-3.09-2.28c-.46-1.28.16-2.29 1.42-2.29a3.1 3.1 0 011.75.62.11.11 0 01.06.14l-.2.33h-.13a2.24 2.24 0 00-1.24-.41c-.85 0-1.29.69-.95 1.61a2.45 2.45 0 002.12 1.6 1.11 1.11 0 00.94-.41h.13zm5.41-1.53c.54 1.48.07 2.28-.89 2.28a3 3 0 01-2.56-2.28c-.54-1.49-.07-2.29.89-2.29a3 3 0 012.56 2.29zm-2.81 0c.36 1 1 1.67 1.69 1.67s.84-.69.48-1.67-1-1.68-1.7-1.68-.83.69-.47 1.68zm4.14 1.9c-.08-.22 0-.39.24-.39a.6.6 0 01.53.39.3.3 0 010 .26.27.27 0 01-.23.12.6.6 0 01-.53-.38zm4.17-1.9c.54 1.48.07 2.28-.89 2.28a3 3 0 01-2.55-2.28c-.54-1.49-.08-2.29.89-2.29a3 3 0 012.55 2.29zm-2.8 0c.35 1 1 1.67 1.69 1.67s.83-.69.47-1.67-1-1.68-1.69-1.68-.83.69-.47 1.68zm6.91 0c.54 1.48.07 2.28-.9 2.28a3 3 0 01-2.55-2.28c-.54-1.49-.07-2.29.89-2.29a3 3 0 012.56 2.29zm-2.81 0c.36 1 1 1.67 1.69 1.67s.83-.69.48-1.67-1-1.68-1.7-1.68-.83.69-.51 1.68zm6.71.75l.14.36c0 .06 0 .09-.07.09h-.41l.32.88c0 .06 0 .1-.06.1h-.48a.17.17 0 01-.13-.1l-.32-.88h-1.81a.13.13 0 01-.13-.09l-.14-.39a.13.13 0 010-.12l.82-2.79a.09.09 0 010-.06h.55a.14.14 0 01.13.1l1 2.81h.41a.14.14 0 01.15.1zm-1.9-2l-.54 1.88h1.23zm5.45 2.21c.27.75-.14 1.32-1 1.32a2.36 2.36 0 01-1.55-.6s-.07-.09 0-.13l.18-.26h.14a1.72 1.72 0 001 .39c.55 0 .78-.31.62-.77a1.34 1.34 0 00-1.33-.77.14.14 0 01-.13-.09l-.12-.34c0-.06 0-.1.06-.1.66 0 .8-.31.67-.66a1 1 0 00-1-.64.67.67 0 00-.64.4h-.14l-.37-.27c-.05 0-.08-.08-.06-.13a1 1 0 011-.6 1.92 1.92 0 011.73 1.17.77.77 0 01.06.56.75.75 0 01-.36.44 2 2 0 011.24 1.08zm3.52-.21a1 1 0 01-1 1.49 2.3 2.3 0 01-2-1.49 1.49 1.49 0 010-1.17l.78-1.93c0-.05.06-.06.13 0l.42.27c.06.05.09.08.06.13l-.51 1.25a2.31 2.31 0 012.12 1.45zm-.64 0a1.34 1.34 0 00-1.17-.88c-.48 0-.72.37-.53.88a1.31 1.31 0 001.17.88c.49 0 .71-.37.49-.88zm4.15.21c.27.75-.15 1.32-1 1.32a2.41 2.41 0 01-1.56-.6s-.07-.09 0-.13l.18-.26h.14a1.72 1.72 0 001 .39c.55 0 .79-.31.62-.77a1.34 1.34 0 00-1.32-.77.13.13 0 01-.13-.09l-.13-.34c0-.06 0-.1.06-.1.66 0 .8-.31.67-.66a1 1 0 00-1-.64.63.63 0 00-.64.4h-.14l-.38-.27c-.05 0-.07-.08-.05-.13a1 1 0 011-.6 1.92 1.92 0 011.73 1.17.73.73 0 01.06.56.7.7 0 01-.35.44 2 2 0 011.24 1.08z"/><g mask="url(#mask-6)"><path d="M329.32 205.39c-7.33 0 5.62 35.58-1.7 35.58s-18.11-29.65-25.48-29.65 1.31 23.72-6 23.72-9.48-5.93-16.8-5.93-9.49-5.93-16.81-5.93-.85 17.82-8.17 17.82-11.64-11.86-19-11.86 1.31 23.71-6 23.71-11.64-11.85-19-11.85 1.31 23.71-6 23.71l1.47 4h146.54z" style="isolation:isolate" fill="url(#linear-gradient)" opacity=".1"/><path d="M329.32 205.39c-7.32 0 5.68 35.61-1.68 35.61s-18.13-29.68-25.5-29.68 1.33 23.75-6 23.75-9.48-5.94-16.8-5.94-9.49-5.94-16.81-5.94-.84 17.81-8.16 17.81-11.65-11.87-19-11.87 1.32 23.75-6 23.75-11.65-11.88-19-11.88 1.32 23.75-6 23.75" stroke-width="2" stroke="#fff" fill="none"/><path d="M187.32 209h142.5M193 224.59h142.5m-136.94 15.24h142.5m-136.74 15.83h142.5" style="isolation:isolate" opacity=".2" stroke="#e0e0e0" stroke-linecap="square" stroke-dasharray="2" fill="none"/></g><g class="cls-27"><g class="cls-28"><path class="cls-1" d="M216.14 268.92v.14h-1.54a.09.09 0 01-.08-.06l-.07-.2.4-.69c.3-.51.45-.73.34-1a.81.81 0 00-.76-.54.5.5 0 00-.49.29h-.09l-.14-.1a.06.06 0 010-.08.66.66 0 01.65-.38 1.24 1.24 0 011.14.81c.14.38 0 .65-.3 1.13l-.35.6h1.24a.08.08 0 01.05.08zm2.11-1.18c.33.91.1 1.43-.52 1.43s-1.22-.52-1.55-1.43-.11-1.42.51-1.42 1.23.51 1.56 1.42zm-1.79 0c.27.73.71 1.16 1.17 1.16s.6-.43.33-1.16-.71-1.16-1.17-1.16-.59.42-.33 1.16zm2.44-1.33l1 2.65v.06h-.17a.09.09 0 01-.08-.06l-.9-2.46h-.42a.07.07 0 01-.07-.06v-.19h.66v.06zm2.97 1.84v.14h-.28l.22.61h-.18a.09.09 0 01-.08-.06l-.22-.61h-1.19a.09.09 0 01-.08-.06l-.06-.16a.09.09 0 010-.07l.52-1.77h.25a.08.08 0 01.08.06l.65 1.78h.28zm-1.15-1.42l-.4 1.36h.89zm19.96 2.09l.06.14h-1.6a.09.09 0 01-.08-.06l-.07-.2.4-.69c.3-.51.45-.73.34-1a.81.81 0 00-.76-.54.5.5 0 00-.49.29h-.09l-.13-.1a.06.06 0 010-.08.66.66 0 01.65-.38 1.24 1.24 0 011.14.81c.14.38 0 .65-.29 1.13l-.36.6h1.24a.1.1 0 01.04.08zm2.11-1.18c.33.91.1 1.43-.52 1.43s-1.22-.52-1.55-1.43-.11-1.42.51-1.42 1.23.51 1.56 1.42zm-1.79 0c.27.73.71 1.16 1.18 1.16s.59-.43.33-1.16-.71-1.16-1.18-1.16-.59.42-.33 1.16zm2.44-1.33l1 2.65h-.18a.09.09 0 01-.08-.06l-.9-2.46h-.42a.07.07 0 01-.07-.06v-.19h.66a.1.1 0 010 .12zm2.88 1.81c.21.58-.09.94-.6.94a1.39 1.39 0 01-.89-.36v-.08l.08-.09h.09a1 1 0 00.65.25c.32 0 .55-.26.4-.67a1 1 0 00-.87-.65.43.43 0 00-.44.25h-.08l-.15-.06a.08.08 0 01-.07-.08l-.13-1.3v-.05h1.08a.08.08 0 01.08.06l.05.13v.06h-.94l.1.85a.57.57 0 01.42-.14 1.43 1.43 0 011.22.94zm18.51.7v.2h-1.55a.1.1 0 01-.08-.06l-.07-.2.4-.69c.3-.51.45-.73.34-1a.82.82 0 00-.76-.54.5.5 0 00-.49.29h-.09l-.14-.1s-.05-.05 0-.08a.65.65 0 01.65-.38 1.24 1.24 0 011.14.81c.14.38 0 .65-.3 1.13l-.35.6h1.24a.07.07 0 01.06 0zm2.11-1.18c.33.91.1 1.43-.52 1.43s-1.23-.52-1.55-1.43-.11-1.42.51-1.42 1.22.51 1.56 1.42zm-1.79 0c.26.73.71 1.16 1.17 1.16s.59-.43.33-1.16-.71-1.16-1.17-1.16-.6.44-.34 1.16zm2.43-1.33l1 2.65v.06h-.18a.1.1 0 01-.08-.06l-.89-2.46H267a.09.09 0 01-.08-.06v-.19h.66a.13.13 0 010 .06zm2.92 1.85c.18.5-.06.91-.56.91a1.42 1.42 0 01-1.22-.91.91.91 0 010-.65l.49-1.31h.08l.15.1a.06.06 0 010 .08l-.34.91h.14a1.43 1.43 0 011.26.87zm-.29 0a1 1 0 00-.83-.63c-.34 0-.51.27-.38.63a1 1 0 00.84.64c.3 0 .51-.27.37-.64zm19.16.66l.05.14v.06h-1.55a.1.1 0 01-.08-.06l-.07-.2.4-.69c.3-.51.45-.73.34-1a.82.82 0 00-.76-.54.5.5 0 00-.49.29h-.09l-.14-.1s-.05-.05 0-.08a.66.66 0 01.65-.38 1.24 1.24 0 011.14.81c.14.38 0 .65-.3 1.13l-.35.6h1.24l.01.02zm2.11-1.18c.33.91.1 1.43-.52 1.43s-1.22-.52-1.55-1.43-.11-1.42.51-1.42 1.22.51 1.56 1.42zm-1.79 0c.26.73.71 1.16 1.17 1.16s.6-.43.33-1.16-.71-1.16-1.17-1.16-.59.42-.33 1.16zm2.45-1.33l1 2.65v.06H293a.09.09 0 01-.08-.06l-.92-2.46h-.42a.09.09 0 01-.08-.06v-.19h.66a.13.13 0 01-.02.06zm2.18 0l-.11 2.65v.06H294a.07.07 0 01-.07-.06l.12-2.46h-1.27a.09.09 0 01-.08-.06l-.06-.13v-.06h1.59s.1.02.09.06zm18.82 2.51l.05.14h-1.56a.1.1 0 01-.08-.06l-.07-.2.4-.69c.3-.51.45-.73.34-1a.82.82 0 00-.76-.54.5.5 0 00-.49.29h-.09l-.14-.1s-.05-.05 0-.08a.66.66 0 01.65-.38 1.24 1.24 0 011.14.81c.14.38 0 .65-.3 1.13l-.35.6h1.24a.11.11 0 01.02.08zm2.09-1.18c.33.91.1 1.43-.52 1.43s-1.22-.52-1.55-1.43-.11-1.42.51-1.42 1.23.51 1.56 1.42zm-1.79 0c.26.73.71 1.16 1.17 1.16s.6-.43.33-1.16-.71-1.16-1.17-1.16-.63.42-.33 1.16zm2.43-1.33l1 2.65v.06h-.18a.09.09 0 01-.08-.06l-.89-2.46h-.42a.09.09 0 01-.08-.06v-.19h.66a.13.13 0 01-.01.06zm1.19 1.94a.56.56 0 010-.44.56.56 0 01.3-.32 1.07 1.07 0 01-.6-.6.46.46 0 010-.49.45.45 0 01.45-.18 1.09 1.09 0 011 .67.5.5 0 01-.17.6 1.29 1.29 0 01.82.76.57.57 0 010 .59.56.56 0 01-.54.23 1.29 1.29 0 01-1.22-.82zm.86-1.37a.7.7 0 00-.63-.42.3.3 0 00-.29.11.27.27 0 000 .31.74.74 0 00.64.47.32.32 0 00.28-.15.31.31 0 000-.3zm.63 1.37a.91.91 0 00-.82-.59c-.33 0-.51.23-.38.59a.85.85 0 00.8.55c.35 0 .52-.23.4-.55zm19.11.57v.14h-1.52a.09.09 0 01-.08-.06l-.07-.2.4-.69c.3-.51.45-.73.34-1a.81.81 0 00-.76-.54.5.5 0 00-.49.29h-.09l-.14-.1a.06.06 0 010-.08.66.66 0 01.65-.38 1.24 1.24 0 011.14.81c.14.38 0 .65-.3 1.13l-.35.6h1.24a.11.11 0 01.03.08zm2.11-1.18c.33.91.1 1.43-.52 1.43s-1.22-.52-1.55-1.43-.11-1.42.51-1.42 1.23.51 1.56 1.42zm-1.79 0c.27.73.71 1.16 1.17 1.16s.6-.43.33-1.16-.71-1.16-1.17-1.16-.59.42-.31 1.16zm2.44-1.33l1 2.65v.06h-.28a.1.1 0 01-.09-.06l-.89-2.46h-.42a.07.07 0 01-.07-.06l-.06-.13v-.06h.66a.1.1 0 01.09 0 .1.1 0 01.06.08zm2.58.81a.94.94 0 010 .66l-.48 1.3h-.08l-.15-.1s-.05 0 0-.09l.34-.91h-.14a1.41 1.41 0 01-1.22-.9c-.18-.5.06-.9.56-.9a1.4 1.4 0 011.17.94zm-.28 0a1 1 0 00-.84-.64c-.34 0-.51.27-.37.64a.93.93 0 00.83.63c.3 0 .46-.26.33-.63z"/></g></g><g class="cls-27"><g class="cls-28"><path class="cls-1" d="M304.76 209c.17.48-.1.82-.65.82a1.46 1.46 0 01-1-.32v-.08l.1-.13h.08a1.06 1.06 0 00.67.25c.37 0 .53-.21.41-.52a.91.91 0 00-.87-.53.09.09 0 01-.08-.06l-.06-.16v-.06c.4 0 .51-.21.43-.46a.67.67 0 00-.64-.42.42.42 0 00-.43.25h-.09l-.18-.12a.07.07 0 010-.09.64.64 0 01.62-.36 1.19 1.19 0 011.06.72.46.46 0 01-.19.6 1.28 1.28 0 01.82.67zm2.87-.63c.34.92.08 1.42-.53 1.42a1.87 1.87 0 01-1.58-1.42c-.34-.92-.08-1.43.54-1.43s1.24.53 1.57 1.43zm-1.77 0c.25.67.67 1.1 1.12 1.1s.55-.43.31-1.1-.67-1.11-1.11-1.11-.56.44-.32 1.11zm4.88 0c.34.92.08 1.42-.53 1.42a1.88 1.88 0 01-1.58-1.42c-.33-.92-.07-1.43.54-1.43a1.89 1.89 0 011.57 1.43zm-1.77 0c.25.67.67 1.1 1.12 1.1s.55-.43.31-1.1-.67-1.11-1.11-1.11-.56.44-.32 1.11zm3.44 1.27a1.08 1.08 0 01-.05.73l-.13-.07a.85.85 0 000-.5.34.34 0 01-.29-.22.15.15 0 010-.16.17.17 0 01.15-.06.39.39 0 01.32.28zm2.59-1.27c.34.92.08 1.42-.53 1.42a1.87 1.87 0 01-1.58-1.42c-.34-.92-.08-1.43.54-1.43s1.28.53 1.57 1.43zm-1.77 0c.25.67.67 1.1 1.12 1.1s.55-.43.31-1.1-.67-1.11-1.11-1.11-.55.44-.28 1.11zm4.91 0c.34.92.08 1.42-.53 1.42a1.87 1.87 0 01-1.58-1.42c-.34-.92-.07-1.43.54-1.43a1.88 1.88 0 011.57 1.43zm-1.77 0c.25.67.67 1.1 1.12 1.1s.55-.43.31-1.1-.67-1.11-1.11-1.11-.55.44-.31 1.11zm4.89 0c.34.92.08 1.42-.53 1.42a1.87 1.87 0 01-1.59-1.42c-.33-.92-.07-1.43.54-1.43a1.9 1.9 0 011.58 1.43zm-1.77 0c.25.67.67 1.1 1.12 1.1s.55-.43.31-1.1-.67-1.11-1.11-1.11-.56.44-.32 1.11zm-8.41 16.57l.06.18v.06h-1.6a.1.1 0 01-.09-.06l-.08-.24.36-.63c.3-.52.47-.74.36-1a.76.76 0 00-.71-.51.47.47 0 00-.47.29h-.09l-.18-.13s-.05-.06 0-.09a.68.68 0 01.66-.39 1.28 1.28 0 011.17.82c.14.39 0 .66-.32 1.16l-.3.52H311zm2.7 0l.07.18v.06h-1.61a.09.09 0 01-.08-.06l-.09-.24.37-.63c.3-.52.46-.74.35-1a.75.75 0 00-.71-.51.49.49 0 00-.47.29h-.08l-.19-.13v-.09a.67.67 0 01.67-.39 1.27 1.27 0 011.16.82c.14.39 0 .66-.32 1.16l-.3.52h1.19zm2.52-.67c.22.59-.08 1-.61 1a1.39 1.39 0 01-.91-.38v-.08l.11-.12h.11a1 1 0 00.61.24c.31 0 .51-.25.38-.63a1 1 0 00-.82-.6.4.4 0 00-.41.22h-.07l-.21-.07a.07.07 0 01-.06-.07l-.15-1.31h1.1a.08.08 0 01.08.06l.07.18h-.91l.08.77a.55.55 0 01.39-.12 1.45 1.45 0 011.24.91zm1.7.81a1 1 0 010 .72l-.13-.07a1 1 0 000-.49.37.37 0 01-.29-.22c0-.13 0-.22.15-.22a.4.4 0 01.27.28zm2.66-1.27c.34.91.08 1.42-.53 1.42a1.89 1.89 0 01-1.58-1.42c-.34-.91-.08-1.43.54-1.43s1.24.51 1.57 1.43zm-1.77 0c.25.67.67 1.1 1.12 1.1s.55-.43.31-1.1-.67-1.11-1.12-1.11-.55.43-.31 1.11zm4.88 0c.34.91.08 1.42-.53 1.42a1.89 1.89 0 01-1.58-1.42c-.34-.91-.07-1.43.54-1.43s1.24.51 1.57 1.43zm-1.77 0c.25.67.67 1.1 1.12 1.1s.55-.43.31-1.1-.67-1.11-1.11-1.11-.56.43-.32 1.11zm4.88 0c.34.91.08 1.42-.53 1.42a1.89 1.89 0 01-1.58-1.42c-.34-.91-.07-1.43.54-1.43s1.24.51 1.57 1.43zm-1.77 0c.25.67.67 1.1 1.12 1.1s.55-.43.31-1.1-.67-1.11-1.11-1.11-.56.43-.29 1.11zm-9.53 14.1l1 2.65v.06h-.24a.09.09 0 01-.08-.06l-.87-2.41H315a.09.09 0 01-.08-.06l-.07-.18v-.06h.72a.1.1 0 01.01.06zm3.47 1.8c.21.59-.09 1-.61 1a1.39 1.39 0 01-.91-.38v-.08l.12-.12h.09a1 1 0 00.6.24c.32 0 .52-.25.38-.63a1 1 0 00-.81-.6.4.4 0 00-.41.22l-.21-.07a.08.08 0 01-.07-.08l-.13-1.3h1.05a.09.09 0 01.08.06l.06.18h-.9l.07.78a.53.53 0 01.39-.13 1.44 1.44 0 011.21 1zm2.95-.47c.34.92.08 1.43-.53 1.43s-1.24-.51-1.58-1.43-.07-1.42.54-1.42a1.85 1.85 0 011.57 1.42zm-1.77 0c.25.67.67 1.1 1.12 1.1s.55-.43.31-1.1-.67-1.1-1.11-1.1-.55.43-.34 1.1zm3.42 1.28a1 1 0 010 .72l-.13-.07a1 1 0 000-.49.37.37 0 01-.38-.21c0-.13 0-.22.15-.22a.38.38 0 01.36.27zm2.63-1.28c.34.92.08 1.43-.53 1.43s-1.24-.51-1.58-1.43-.08-1.42.54-1.42a1.85 1.85 0 011.57 1.42zm-1.77 0c.24.67.67 1.1 1.12 1.1s.55-.43.31-1.1-.67-1.1-1.12-1.1-.55.43-.31 1.1zm4.88 0c.34.92.08 1.43-.53 1.43s-1.24-.51-1.58-1.43-.08-1.42.54-1.42a1.85 1.85 0 011.57 1.42zm-1.77 0c.25.67.67 1.1 1.12 1.1s.55-.43.31-1.1-.67-1.1-1.12-1.1-.55.43-.31 1.1zm4.88 0c.34.92.08 1.43-.53 1.43s-1.24-.51-1.58-1.43-.07-1.42.54-1.42a1.85 1.85 0 011.57 1.42zm-1.77 0c.25.67.67 1.1 1.12 1.1s.55-.43.31-1.1-.67-1.1-1.11-1.1-.56.43-.32 1.1zm-6.52 14.1l-.11 2.66h-.31l.11-2.41h-1.23a.1.1 0 01-.08-.06l-.07-.19v-.06h1.62a.07.07 0 01.07.06zm3.33 1.81c.21.59-.08 1-.61 1a1.4 1.4 0 01-.91-.37v-.08l.11-.13h.09a1 1 0 00.61.25c.31 0 .51-.26.37-.63a1 1 0 00-.81-.61.39.39 0 00-.41.23h-.07l-.21-.07a.08.08 0 01-.07-.08l-.13-1.3s0-.06.05-.06h1.1a.09.09 0 01.08.06l.06.18v.06h-.91l.08.77a.51.51 0 01.38-.12 1.45 1.45 0 011.2 1zm1.73.85a1 1 0 010 .72l-.13-.07a1.06 1.06 0 000-.5.33.33 0 01-.29-.22.14.14 0 010-.15.14.14 0 01.14-.06.4.4 0 01.27.28zm2.63-1.32c.33.92.08 1.43-.54 1.43s-1.24-.51-1.57-1.43-.08-1.43.54-1.43 1.24.51 1.57 1.43zm-1.77 0c.24.67.67 1.1 1.12 1.1s.55-.43.31-1.1-.67-1.1-1.12-1.1-.55.43-.3 1.1zm4.87 0c.34.92.08 1.43-.54 1.43s-1.23-.51-1.57-1.43-.08-1.43.54-1.43 1.25.51 1.57 1.43zm-1.77 0c.24.67.67 1.1 1.12 1.1s.55-.43.31-1.1-.67-1.1-1.12-1.1-.54.42-.3 1.1zm4.91 0c.34.92.08 1.43-.53 1.43s-1.24-.51-1.58-1.43-.08-1.43.54-1.43 1.22.51 1.57 1.43zm-1.77 0c.25.67.67 1.1 1.12 1.1s.55-.43.31-1.1-.67-1.1-1.11-1.1-.55.43-.34 1.1z"/></g></g><path d="M223.89 278.47H275a9.4 9.4 0 018.1 5.94h0c1.19 3.28-.5 5.93-3.78 5.93h-51.11a9.38 9.38 0 01-8.1-5.93h0c-1.19-3.33.5-5.94 3.78-5.94z" stroke="#f5a522" fill="#f5a522"/><path class="cls-1" d="M250.72 284.84c.21.58 0 .9-.8.9h-1a.1.1 0 01-.09-.06l-1.09-3v-.07h1a1.22 1.22 0 011.2.77.53.53 0 01-.18.67 1.29 1.29 0 01.96.79zm-1.82-1.78h-.54l.3.82h.54c.3 0 .44-.15.34-.44a.62.62 0 00-.64-.38zm1.31 1.73a.8.8 0 00-.82-.5h-.58l.36 1h.59c.38 0 .58-.14.45-.5zm.35-2.17h.35a.11.11 0 01.09.07l1.09 3v.06h-.35a.09.09 0 01-.09-.06l-1.09-3s-.04-.07 0-.07zm3.07.07l.11.3v.07h-.69l.95 2.62v.06h-.35a.09.09 0 01-.09-.06l-1-2.62h-.69a.11.11 0 01-.09-.07l-.11-.3v-.07h1.87a.11.11 0 01.09.07zm3.89 2.58s.05.06 0 .09a1.07 1.07 0 01-.91.44 2.5 2.5 0 01-2.17-1.6c-.32-.91.12-1.61 1-1.61a2.13 2.13 0 011.23.43s.06.06 0 .1l-.14.23h-.09a1.62 1.62 0 00-.87-.29c-.6 0-.91.48-.67 1.14a1.71 1.71 0 001.5 1.12.78.78 0 00.65-.29h.1zm.04-1.07c-.33-.9.13-1.61 1-1.61a2.51 2.51 0 012.18 1.61 1.11 1.11 0 010 1.09 1.09 1.09 0 01-1 .51 2.52 2.52 0 01-2.18-1.6zm2.7 0a1.72 1.72 0 00-1.51-1.14c-.63 0-.93.49-.7 1.14a1.73 1.73 0 001.52 1.12c.62 0 .93-.49.69-1.12zm.62-1.58h.35a.11.11 0 01.09.07l1.09 3v.06h-.36a.1.1 0 01-.09-.06l-1.08-3s-.04-.07 0-.07zm3.56.07l1.09 3v.06H265l-2.2-2.34.84 2.32v.06h-.35a.09.09 0 01-.09-.06l-1.09-3v-.07h.43a.09.09 0 01.1 0l2.2 2.34-.84-2.32v-.07h.35a.11.11 0 01.08.08z"/><ellipse id="home-j-3" class="cls-30" cx="242.1" cy="284.21" rx="4.69" ry="6.73" transform="rotate(-50.16 242.104 284.215)"/><g mask="url(#mask-9)"><path class="cls-32" d="M238.22 280.11l6.88 1.68.6 6.26-6.87-1.68-.61-6.26z"/><path id="home-l" class="cls-1" d="M243.53 284.41l-.21-.16a.6.6 0 00.24-.48 1.25 1.25 0 00-.47-1 2 2 0 00-.82-.44l-.07-.79-.47-.11.08.78-.48-.12-.07-.78-.48-.11.08.78-1.06-.26v.52l.67.16.24 2.56-.5-.12a1.16 1.16 0 01-.08.52l1.06.26.07.75.47.12-.08-.77.47.12.07.77.48.11-.07-.76h.19a1.54 1.54 0 00.57.05.66.66 0 00.48-.18.67.67 0 00.2-.48 1.38 1.38 0 00-.51-.94zm-2.16-1.75l.63.15a1 1 0 01.43.22.7.7 0 01.24.49.28.28 0 01-.1.21.27.27 0 01-.21.09h-.27l-.63-.15zm1.62 2.69a.57.57 0 01-.3.1h-.3l-.78-.19-.11-1.1.81.2a1.18 1.18 0 01.4.17.73.73 0 01.38.56.41.41 0 01-.1.3z"/></g><path d="M290.39 278.47h51.06a9.4 9.4 0 018.1 5.94h0c1.19 3.28-.5 5.93-3.78 5.93h-51.06a9.38 9.38 0 01-8.1-5.93h0c-1.19-3.33.53-5.94 3.78-5.94z" stroke="#fff" fill="none"/><path class="cls-1" d="M314.14 285.37l.11.31v.06h-1.61a.1.1 0 01-.09-.06l-1.09-3v-.05h1.68a.11.11 0 01.09.07l.11.3v.07h-1.17l.31.83h1.09a.11.11 0 01.09.07l.11.3v.07h-1.09l.35 1h1.17l-.06.05zm1.64-2.68l.11.3v.07h-.75l.95 2.62v.06h-.35a.09.09 0 01-.09-.06l-1-2.62H314a.1.1 0 01-.1-.07l-.11-.3v-.05h1.91a.11.11 0 01.12.07zm2.91 0l1.09 3v.06h-.36a.1.1 0 01-.09-.06l-.49-1.22h-1.31l.45 1.26v.06h-.35a.09.09 0 01-.09-.06l-1.09-3v-.07h.36a.11.11 0 01.09.07l.47 1.29h1.31l-.47-1.29v-.07h.35a.1.1 0 01.13 0zm3.45 2.68l.11.31v.06h-1.59a.09.09 0 01-.09-.06l-1.09-3v-.07h1.59a.11.11 0 01.09.07l.11.3v.07h-1.17l.3.83h1.1a.11.11 0 01.09.07l.11.3v.07h-1.1l.36 1h1.17a.43.43 0 01.01.05zm2.86.37h-.48l-1.11-1.09H323l.39 1.07v.06H323a.09.09 0 01-.1-.06l-1.08-3v-.07h.88a1.52 1.52 0 011.45 1 .67.67 0 01-.35.94l1.13 1.1.07.05zm-2.12-1.57h.45c.34 0 .58-.14.43-.55a.83.83 0 00-.84-.56h-.44zm4.35 1.2l.11.31v.06h-1.59a.09.09 0 01-.09-.06l-1.09-3v-.07h1.57a.11.11 0 01.09.07l.11.3v.07h-1.2l.3.83h1.1a.11.11 0 01.09.07l.11.3v.07h-1.1l.36 1h1.14a.08.08 0 01.09.05zm1.99-2.68l.67 1.84c.3.83 0 1.27-.69 1.27a1.74 1.74 0 01-1.61-1.27l-.67-1.84v-.07h.35a.11.11 0 01.09.07l.67 1.84a1 1 0 001 .8c.4 0 .57-.26.37-.8l-.67-1.84v-.07h.41a.13.13 0 01.08.07zm3.92 0l1.09 3v.06h-.35a.09.09 0 01-.09-.06l-.8-2.18v.19l-.09 2a.06.06 0 01-.06.05h-.33a.12.12 0 01-.1-.05l-1.54-2-.13-.19.79 2.18v.06h-.39a.1.1 0 01-.09-.06l-1.09-3v-.07h.42a.09.09 0 01.1 0l2 2.52.13-2.52h.48a.13.13 0 01.05.07z"/><path class="cls-32" d="M299.69 280.6h7.25l2.64 7.25h-7.25l-2.64-7.25z"/><path id="home-m" class="cls-1" d="M305.23 285.86l1.61-1.19-1 2.84-3.07-2.84 2.47 1.19zm-.09-.39l-2.47-1.2.82-3.34 3.26 3.34z"/><path class="cls-14" d="M167.84 158.68h142.5l3.45 9.5h-142.5l-3.45-9.5z"/><g mask="url(#mask-10)"><path fill="#94a3c3" d="M270.75 158.68h39.59l3.45 9.5h-39.58l-3.46-9.5z"/></g><path class="cls-1" d="M220.78 196.81l.07.2v.08h-.5l.19.5v.07h-.2a.1.1 0 01-.1-.07l-.19-.5h-.5a.11.11 0 01-.1-.08l-.07-.2v-.07h.51l-.18-.5v-.07h.2a.09.09 0 01.1.07l.18.5h.5a.11.11 0 01.09.07zm2.98.41c.22.62-.08 1.1-.69 1.1a1.71 1.71 0 01-1.5-1.1 1.09 1.09 0 010-.83l.57-1.51h.1l.25.16s.06.06 0 .1l-.4 1h.08a1.7 1.7 0 011.59 1.08zm-.41 0a1.07 1.07 0 00-.94-.7c-.39 0-.57.3-.42.7a1.06 1.06 0 00.93.72c.39 0 .58-.3.43-.72zm3.29-.6c.4 1.1.09 1.7-.64 1.7a2.21 2.21 0 01-1.86-1.7c-.41-1.11-.09-1.72.64-1.72s1.46.57 1.86 1.72zm-2.12 0c.29.8.79 1.32 1.33 1.32s.67-.52.38-1.32-.8-1.33-1.34-1.33-.67.52-.37 1.33zm3.53 1.52a1.3 1.3 0 010 .87l-.16-.08a1 1 0 000-.6.41.41 0 01-.34-.26.17.17 0 010-.19.17.17 0 01.17-.07.46.46 0 01.33.33zm2.39-.8c.2.57-.12 1-.78 1a1.78 1.78 0 01-1.13-.43v-.1l.12-.15h.1a1.27 1.27 0 00.8.3c.44 0 .63-.25.5-.62a1.11 1.11 0 00-1.05-.64.1.1 0 01-.1-.07l-.07-.2v-.07c.48 0 .62-.26.51-.54a.81.81 0 00-.77-.51.52.52 0 00-.51.3H228l-.22-.14s-.06-.07 0-.1a.76.76 0 01.75-.44 1.42 1.42 0 011.27.86.57.57 0 01-.24.73 1.49 1.49 0 01.92.82zm2.56 0c.21.57-.11 1-.77 1a1.78 1.78 0 01-1.1-.45v-.1l.11-.15h.11a1.27 1.27 0 00.8.3c.44 0 .63-.25.5-.62a1.1 1.1 0 00-1-.64.1.1 0 01-.1-.07l-.07-.2v-.07c.48 0 .61-.26.51-.54a.81.81 0 00-.77-.51.5.5 0 00-.51.3h-.1l-.3-.12s-.06-.07 0-.1a.76.76 0 01.75-.44 1.42 1.42 0 011.27.86.57.57 0 01-.24.73 1.51 1.51 0 01.91.82zm2.86.66l.08.22a.09.09 0 010 .07H234a.1.1 0 01-.1-.07l-.11-.29.44-.76c.37-.62.56-.88.43-1.24a.9.9 0 00-.85-.61.62.62 0 00-.57.34h-.1l-.22-.16s-.06-.07 0-.1a.79.79 0 01.79-.48 1.53 1.53 0 011.4 1c.17.47 0 .79-.39 1.39l-.36.62h1.43a.14.14 0 01.06.07zm.64.06a.19.19 0 010-.18.18.18 0 01.17-.07.4.4 0 01.35.25.19.19 0 010 .18.21.21 0 01-.16.08.4.4 0 01-.36-.26zm3.1-.06l.08.22s0 .07-.05.07h-1.88a.1.1 0 01-.1-.07l-.1-.29.44-.76c.36-.62.56-.88.42-1.24a.9.9 0 00-.85-.61.58.58 0 00-.56.34h-.11l-.22-.16s-.06-.07 0-.1a.8.8 0 01.79-.48 1.53 1.53 0 011.4 1c.17.47 0 .79-.39 1.39l-.36.62h1.43a.11.11 0 01.06.07zm.54-3l1.16 3.18v.07h-.3a.1.1 0 01-.1-.07l-1-2.89h-.52a.11.11 0 01-.09-.07l-.12-.22v-.07h1a.18.18 0 01-.03.07zm2.21.56a.43.43 0 010 .44.42.42 0 01-.39.2 1 1 0 01-.88-.64.41.41 0 010-.44.42.42 0 01.4-.2 1 1 0 01.87.64zm-1 0a.53.53 0 00.47.35c.2 0 .3-.15.23-.35a.55.55 0 00-.48-.35c-.18 0-.28.15-.21.35zm2.21-.46l-1 3.17-.32-.17 1-3.17zm1.23 2.55a.43.43 0 010 .44.42.42 0 01-.39.2 1 1 0 01-.89-.64.43.43 0 010-.45.44.44 0 01.41-.2 1 1 0 01.89.65zm-1 0a.53.53 0 00.48.34.24.24 0 00.22-.1.26.26 0 000-.24.58.58 0 00-.48-.36.25.25 0 00-.22.36zm2.9-.55c-.25-.68.07-1.21.74-1.21a1.88 1.88 0 011.63 1.21c.24.68-.08 1.21-.75 1.21a1.84 1.84 0 01-1.62-1.21zm2 0a1.21 1.21 0 00-1.07-.83c-.43 0-.65.35-.47.83a1.23 1.23 0 001.07.82c.39 0 .6-.35.42-.82zm2.19-1.16h.26a.07.07 0 01.06 0 .07.07 0 010 .06l-.09 2.19a.05.05 0 01-.06 0h-.3a.13.13 0 01-.11 0L249 196v-.08h.4l1.32 1.78v-1.78zm3.36 1.06c.06.17.07.25 0 .25h-1.68a1.22 1.22 0 001.06.67.62.62 0 00.52-.21h.1l.16.11s.07.07 0 .11a.82.82 0 01-.74.36 1.84 1.84 0 01-1.62-1.21c-.24-.67 0-1.2.71-1.2a1.71 1.71 0 011.49 1.12zm-1.85-.06h1.45a1.11 1.11 0 00-1-.69c-.36.01-.54.3-.45.75zm3.49-.89v.21h-.27c-.29 0-.43.22-.32.52l.51 1.4v.07h-.28a.1.1 0 01-.1-.07l-.79-2.18v-.07h.26a.12.12 0 01.1.07l.1.21a.41.41 0 01.45-.33.61.61 0 01.32.08.1.1 0 01.02.09zm4.47 1.17c.22.62-.08 1.1-.7 1.1a1.69 1.69 0 01-1.49-1.1 1.08 1.08 0 010-.83l.58-1.51h.1l.25.16s.06.06 0 .1l-.4 1h.08a1.73 1.73 0 011.58 1.08zm-.41 0a1.07 1.07 0 00-.94-.7c-.39 0-.57.3-.43.7a1.07 1.07 0 00.94.72.46.46 0 00.43-.72zm5.99-.4l.5 1.37s0 .07-.05.07h-.24a.1.1 0 01-.1-.07l-.48-1.32a.81.81 0 00-.73-.6.42.42 0 00-.39.16.42.42 0 00-.05.42l.48 1.34v.07h-.29a.09.09 0 01-.09-.07l-.48-1.32a.81.81 0 00-.73-.6.48.48 0 00-.36.16.45.45 0 00-.11.37l.51 1.39v.07H263a.1.1 0 01-.1-.07l-.79-2.18v-.07h.27a.12.12 0 01.1.07l.13.32a.58.58 0 01.61-.44 1.15 1.15 0 01.91.46.61.61 0 01.67-.46 1.26 1.26 0 011.09.93zm.78.28c-.24-.68.08-1.21.74-1.21a1.88 1.88 0 011.63 1.21c.25.68-.07 1.21-.74 1.21a1.86 1.86 0 01-1.63-1.21zm2 0a1.27 1.27 0 00-1.07-.83c-.44 0-.65.35-.48.83a1.23 1.23 0 001.07.82c.4 0 .61-.35.44-.82zm2.97-.28l.5 1.37v.07h-.29a.09.09 0 01-.09-.07l-.48-1.32a.81.81 0 00-.73-.6.45.45 0 00-.47.53l.51 1.39v.07h-.28a.1.1 0 01-.1-.07l-.79-2.18v-.07h.27a.11.11 0 01.09.07l.14.32a.58.58 0 01.61-.44 1.25 1.25 0 011.11.93zm1.58-.82l.07.21v.07H273l.69 1.9v.07h-.28a.1.1 0 01-.1-.07l-.69-1.9h-.43a.1.1 0 01-.1-.07L272 196v-.07h.38l-.23-.64v-.07h.29a.12.12 0 01.1.07l.23.64h.4a.12.12 0 01.12.07zm2.95.82l.49 1.37v.07h-.29a.09.09 0 01-.09-.07l-.48-1.32a.81.81 0 00-.73-.6.48.48 0 00-.36.16.45.45 0 00-.11.37l.51 1.39v.07h-.28a.1.1 0 01-.1-.07l-1.21-3.32v-.07h.28a.12.12 0 01.1.07l.53 1.46a.58.58 0 01.61-.44 1.27 1.27 0 011.13.93zm2.67.82c.15.41-.17.67-.58.67a1.6 1.6 0 01-1-.39s-.05-.06 0-.09l.06-.17h.11a1.54 1.54 0 00.73.27c.24 0 .38-.1.31-.3-.18-.51-1.35-.32-1.63-1.1-.15-.39.1-.65.52-.65a1.48 1.48 0 01.89.35.09.09 0 010 .1l-.06.13h-.1a1.07 1.07 0 00-.61-.23c-.17 0-.34.08-.26.3.15.47 1.32.28 1.62 1.11zm-53.74-10.79l.34.92c0 .12 0 .2-.13.2h-4.77a.27.27 0 01-.27-.2l-3.28-9c0-.12 0-.2.12-.2H222a.29.29 0 01.27.2l.33.91c0 .13 0 .21-.12.21h-3.58l.92 2.51h3.32a.31.31 0 01.27.21l.34.91c0 .12 0 .2-.13.2h-3.32l1.07 3h3.54a.29.29 0 01.23.13zm5.94-8.1l2 5.56c.91 2.5-.07 3.84-2.09 3.84a5.34 5.34 0 01-4.85-3.84l-2-5.56c0-.12 0-.2.13-.2h1.06a.31.31 0 01.28.2l2 5.56a3.15 3.15 0 002.89 2.42c1.21 0 1.73-.79 1.13-2.42l-2-5.56c0-.12 0-.2.13-.2h1.06a.33.33 0 01.26.2zm11.46 9.25h-1.15a.39.39 0 01-.29-.13l-3.35-3.29h-1.12l1.18 3.22c0 .12 0 .2-.13.2h-1.07a.27.27 0 01-.27-.2l-3.28-9c0-.12 0-.2.12-.2h2.67a4.52 4.52 0 014.37 3c.51 1.39.17 2.48-1.07 2.85l3.43 3.33c.15.1.12.22-.04.22zm-6.4-4.74h1.35c1 0 1.76-.44 1.31-1.68a2.53 2.53 0 00-2.54-1.68h-1.33zm16.93 2.09c.58 1.59-.31 2.8-2.21 2.8a5.13 5.13 0 01-3.3-1.28c-.1-.1-.14-.2-.09-.28l.39-.56c.06-.09.16-.1.29 0a3.54 3.54 0 002.19.82c1.17 0 1.67-.64 1.32-1.61a2.82 2.82 0 00-2.82-1.64.28.28 0 01-.27-.21l-.26-.71c0-.12 0-.2.13-.2 1.39 0 1.69-.67 1.42-1.42a2.18 2.18 0 00-2-1.34 1.42 1.42 0 00-1.37.83c-.07.11-.16.1-.29 0l-.8-.56a.24.24 0 01-.12-.29 2.22 2.22 0 012.12-1.23 4.08 4.08 0 013.67 2.48 1.57 1.57 0 01-.63 2 4.13 4.13 0 012.63 2.4zm3.83 2.2a3.4 3.4 0 01-.21 2.56l-.48-.25a3.07 3.07 0 000-1.7 1.35 1.35 0 01-1.06-.82.58.58 0 01.56-.84 1.42 1.42 0 011.19 1.05zm1.24-8.8l3.28 9c0 .12 0 .2-.13.2h-1a.27.27 0 01-.27-.2l-2.93-8h-1.5a.29.29 0 01-.26-.2l-.28-.77c0-.12 0-.2.12-.2h2.7a.33.33 0 01.27.17zm10.14 6.25c.65 1.78-.23 3.17-2 3.17A4.92 4.92 0 01262 185a3.3 3.3 0 01.08-2.49l1.65-4.1c0-.11.13-.14.27 0l.9.57c.13.1.18.18.14.29l-1.1 2.64a4.9 4.9 0 014.39 3.09zm-1.36 0a2.83 2.83 0 00-2.49-1.88c-1 0-1.52.79-1.13 1.88a2.84 2.84 0 002.5 1.86c1.02-.02 1.52-.8 1.12-1.86zm8.79.35c.58 1.59-.31 2.8-2.21 2.8a5.16 5.16 0 01-3.31-1.28c-.1-.1-.14-.2-.09-.28l.4-.56c.06-.09.16-.1.29 0a3.54 3.54 0 002.18.82c1.18 0 1.68-.64 1.33-1.61a2.82 2.82 0 00-2.82-1.64.29.29 0 01-.28-.21l-.26-.71c0-.12 0-.2.13-.2 1.4 0 1.69-.67 1.43-1.42a2.19 2.19 0 00-2.06-1.34 1.4 1.4 0 00-1.36.83c-.07.11-.17.1-.3 0L268 180a.24.24 0 01-.12-.29 2.22 2.22 0 012.16-1.23 4.07 4.07 0 013.68 2.48 1.57 1.57 0 01-.63 2 4.13 4.13 0 012.63 2.4z"/><path class="cls-32" d="M280.19 178.08h6.33l2.31 6.33h-6.34l-2.3-6.33z"/><path id="home-p-3" class="cls-36" d="M285.66 184.41a.42.42 0 00.38-.2.44.44 0 000-.43h-1.24a1 1 0 00.85.63zm1.33-1.9l.85.63.11.32h-5.28l-.11-.32.39-.63-.63-1.74a1.37 1.37 0 01.82-2l-.08-.22a.31.31 0 010-.32.31.31 0 01.28-.15.75.75 0 01.64.47l.08.22a3.34 3.34 0 012.28 2zm-3-2.32l.33.9h-.9l.11.3h.9l.33.91h.3l-.33-.91h.91l-.11-.3h-.91l-.33-.9z"/><g mask="url(#mask-11)"><path class="cls-1" d="M280.19 178.08h6.33l2.31 6.33h-6.34l-2.3-6.33z"/></g><path class="cls-30" d="M257.38 209a.63.63 0 01.54.4l20.89 57.39c.08.22 0 .4-.25.4a.62.62 0 01-.54-.4l-20.88-57.39a.26.26 0 010-.27.28.28 0 01.24-.13z"/><ellipse cx="262.71" cy="223.59" rx="1.32" ry="1.9" transform="rotate(-50.16 262.7 223.593)" stroke="#f5a522" stroke-width="2" fill="#fff"/><path class="cls-32" d="M277.6 192.72h9.5l3.46 9.5h-9.5l-3.46-9.5z"/><path id="home-r-3" class="cls-36" d="M281.81 196.68h3.96l-1.26 1.98-2.7-1.98z"/><g mask="url(#mask-12)"><path class="cls-1" d="M277.6 192.72h9.5l3.46 9.5h-9.5l-3.46-9.5z"/></g><path id="Rectangle-Copy-2" class="cls-40" d="M368.68 329l1.53 18.67a4.16 4.16 0 00-2.06 1.4q-13.26 22-57.64 35.37 42.71-27.88 56.9-54.25a3.78 3.78 0 011.27-1.19z"/><path class="cls-2" d="M97.29 121.47c0-2.5-5-7.5-7.5-7.5 2.5 0 7.5-5 7.5-7.5 0 2.5 5 7.5 7.5 7.5-2.5 0-7.5 5-7.5 7.5M110 103.71c0-1.64-3-4.93-4.55-4.93 1.52 0 4.55-3.28 4.55-4.92 0 1.64 3 4.92 4.56 4.92-1.52 0-4.56 3.29-4.56 4.93"/><path id="Fill-5-Copy" class="cls-2" d="M287.63 86.47c0-2.5-5-7.5-7.49-7.5 2.49 0 7.49-5 7.49-7.5 0 2.5 5 7.5 7.51 7.5-2.5 0-7.51 5-7.51 7.5"/><path class="cls-2" d="M222.14 33.47c0-1.33-2.67-4-4-4 1.33 0 4-2.67 4-4 0 1.33 2.66 4 4 4-1.34 0-4 2.67-4 4"/><path id="Fill-7-Copy-2" class="cls-2" d="M71.14 325.47c0-1.33-2.67-4-4-4 1.33 0 4-2.67 4-4 0 1.33 2.66 4 4 4-1.34 0-4 2.67-4 4"/><path id="Fill-7-Copy" class="cls-2" d="M403.14 54.47c0-1.33-2.67-4-4-4 1.33 0 4-2.67 4-4 0 1.33 2.66 4 4 4-1.34 0-4 2.67-4 4"/><path id="Fill-12" class="cls-2" d="M24.14 83.47s0 5.87-6 5.65c5.76.22 5.76 5.35 5.76 5.35s-.15-5.43 6.24-5.06c-6.63-.37-6-5.94-6-5.94"/><path id="Fill-12-Copy" class="cls-2" d="M367.63 200.47s0 5.87-6 5.65c5.76.22 5.76 5.35 5.76 5.35s-.15-5.43 6.24-5.06c-6.62-.37-6-5.94-6-5.94"/><path id="Fill-12-Copy-6" class="cls-2" d="M441.14 167.47s0 5.87-6 5.65c5.76.22 5.76 5.35 5.76 5.35s-.15-5.43 6.24-5.06c-6.63-.37-6-5.94-6-5.94"/><path id="Fill-12-Copy-2" class="cls-2" d="M264.63 327.47s0 5.87-6 5.65c5.76.22 5.76 5.35 5.76 5.35s-.15-5.43 6.24-5.06c-6.62-.37-6-5.94-6-5.94"/><path id="Fill-12-Copy-3" class="cls-40" d="M264.63 341.47s0 5.87-6 5.65c5.76.22 5.76 5.35 5.76 5.35s-.15-5.43 6.24-5.06c-6.62-.37-6-5.94-6-5.94"/><path id="Rectangle" d="M133.14 257.47c21-28 79-44 113-54q42.69-12.56 116-59l5 9q-50.36 37.08-86 54c-37.75 17.91-117 34-121 72s24.65 55.3 52 56h1.74l3.71 11h-.15c-37.52 1.91-62.58-.31-79.3-17-16-16-26-44-5-72z" fill="#c4cede" fill-rule="evenodd"/><path id="Rectangle-Copy" class="cls-42" d="M144.14 260.47c18-26 68-41 102-51q42.69-12.56 117-61l2 3q-56.36 37.08-92 54c-37.75 17.91-124 33-129 79-2.29 21 6.86 41.25 29 51q10.11 4.45 41.66 6h1.11l1 2.93-1.33.12q-57.52 4.83-76.42-20c-9.66-12.72-13.02-38.05 4.98-64.05z"/><path class="cls-43" d="M133.14 257.47c21-28 79-44 113-54q42.69-12.56 116-59l5 4q-79.35 41.07-115 58c-37.75 17.91-111 40-114 79s18.76 48.6 45 55q8.28 2 27 1h6a43.16 43.16 0 011.63 5c-37.71 1.93-62.86-.25-79.63-17-16-16-26-44-5-72z"/><path id="Rectangle-Copy-10" class="cls-43" d="M133.14 257.47c9.39-12.53 26.19-22.65 44.93-30.91l1.48-.66 4.57-1.92-3 1.49-.12.06c-26.72 13.4-41.23 38.37-42.88 59.94-3 39 18.76 48.6 45 55q8.28 2 27 1h6a43.16 43.16 0 011.63 5c-37.71 1.93-62.86-.25-79.63-17-15.98-16-25.98-44-4.98-72z"/><path id="Rectangle-Copy-15" class="cls-43" d="M133.14 257.47c9.39-12.53 26.19-22.65 44.93-30.91l1.48-.66 4.57-1.92-3 1.49-.12.06c-26.72 13.4-41.23 38.37-42.88 59.94-3 39 18.76 48.6 45 55q8.28 2 27 1h6a43.16 43.16 0 011.63 5c-37.71 1.93-62.86-.25-79.63-17-15.98-16-25.98-44-4.98-72z"/><path id="Rectangle-Copy-12" class="cls-43" d="M133.14 257.47c9.39-12.53 26.19-22.65 44.93-30.91l1.48-.66 4.57-1.92-3 1.49-.12.06c-26.72 13.4-50.23 38.37-51.88 59.94-3 39 25.76 51.6 52 58q8.28 2 29-2h6a43.16 43.16 0 011.63 5c-37.71 1.93-62.86-.25-79.63-17-15.98-16-25.98-44-4.98-72z"/><path id="Rectangle-Copy-13" class="cls-43" d="M133.14 257.47c9.39-12.53 26.19-22.65 44.93-30.91l1.48-.66 4.57-1.92-3 1.49-.12.06c-26.72 13.4-50.23 38.37-51.88 59.94-3 39 25.76 51.6 52 58q8.28 2 29-2h6a43.16 43.16 0 011.63 5c-37.71 1.93-62.86-.25-79.63-17-15.98-16-25.98-44-4.98-72z"/><path id="Rectangle-Copy-6" class="cls-43" d="M192.14 326.47l21 7 8 23-46-4c18-6 20-17 17-26z"/><path id="Rectangle-Copy-7" class="cls-43" d="M192.14 326.47l21 7 8 23-46-4c18-6 20-17 17-26z"/><path class="cls-44" d="M261.82 400.63l.14-.17a54.15 54.15 0 0110.3-9.82 97 97 0 0122.88-12.17c19.89-7.74 68.54-17.06 92-22 38-8 83.19-46.1 28-49a188.19 188.19 0 00-42 3l-3-7q53.49-11.28 81 4c27 15-2 51-39 66q-72.21 29.26-72 39h-8.87l-65.24-.3z"/><path id="Rectangle-Copy-11" class="cls-42" d="M382.14 366.47c40-10 59.35-27.45 67-40 6.26-10.29-9.14-19.69-34-21q-19-1-43 4l-1-1q31.14-5.45 44-5c12.32.42 23 2 32 7 27 15-12 44-49 59-72.2 29.27-76 27-86.44 43q-33.9-.06-37.59-.26c25.03-34.74 85.1-40.01 108.03-45.74z"/><path class="cls-43" d="M387.14 356.47c38-8 83.19-46.1 28-49a188.19 188.19 0 00-42 3l-2-3q38.49-10.29 66 5c11.14 6.19-.85 17.61-8 24-10.14 9.09-65.46 24.94-42 20z"/><circle class="cls-45" cx="468.14" cy="309.47" r="2"/><circle id="Oval-Copy-6" class="cls-45" cx="470.14" cy="336.47" r="2"/><circle id="Oval-Copy-5" class="cls-45" cx="477.14" cy="323.47" r="4"/><circle class="cls-45" cx="108.14" cy="274.47" r="2"/><circle class="cls-45" cx="106.14" cy="312.47" r="2"/><circle id="Oval-Copy-7" class="cls-45" cx="113.14" cy="294.47" r="2"/><circle class="cls-45" cx="94.14" cy="286.47" r="4"/><path id="Rectangle-Copy-3" class="cls-43" d="M322.81 386c22.06-5.52 46.55-6.06 70-11 2.36-.5 22-7.11 27-9q8-3 31-19c-1.33.81-9 9.67-18 16a85.56 85.56 0 01-20 10c-41.39 16.48-71.41 30.69-72 39q-64.9-.26-74.08-.34l-1-2.65c14.86-11.42 45.92-20.27 57.08-23.01z"/><path id="Rectangle-Copy-8" class="cls-43" d="M322.81 386c22.06-5.52 46.55-6.06 70-11 2.36-.5 16-6 27-9q11-3 31-19c-1.33.81-9 9.67-18 16a85.56 85.56 0 01-20 10c-41.39 16.48-71.41 30.69-72 39q-67.95-.29-74.1-.34l-1-2.65c14.9-11.43 45.94-20.27 57.1-23.01z"/><path id="Rectangle-Copy-4" class="cls-43" d="M339.81 394c24-4.5 30.55-11.06 54-16 12-2.52 21.06-7.24 28.1-9.31l.46-.14a47 47 0 01-9.56 4.45c-41.39 16.48-71.41 30.69-72 39l-46-.18q28.99-14.82 45-17.82z"/><path id="Rectangle-Copy-9" class="cls-43" d="M339.81 394c24-4.5 30.55-11.06 54-16 12-2.52 21.06-7.24 28.1-9.31l.46-.14a47 47 0 01-9.56 4.45c-41.39 16.48-71.41 30.69-72 39l-46-.18q28.99-14.82 45-17.82z"/><path id="Rectangle-Copy-5" class="cls-43" d="M347.81 396c24-7 67.06-25.24 74.1-27.31l.46-.14a47 47 0 01-9.56 4.45c-41.39 16.48-71.41 30.69-72 39h-17a47.48 47.48 0 0124-16z"/><path class="cls-43" d="M266.81 412l-.1-.33 65.1.33h9q9 4 22 4c13 0 34 1 47-8l4 11a169.46 169.46 0 01-30 7c-13 1.9-40 0-64-2a206.31 206.31 0 01-53-12z"/><path class="cls-17" d="M384.13 148.21l16-3q3.45 12.36-7 19-9.15 5.81-25.27 6c-1.53 0-1.63-1.3-.12-1.87 10.45-3.92 19.03-6.66 16.39-20.13z"/><path id="Rectangle-Copy-18" class="cls-46" d="M396.45 145.9c-.36-.58.87-.81 3.68-.69q3.45 12.36-7 19a34.45 34.45 0 01-9.34 4 63.8 63.8 0 01-15.93 2s.09-.26.53-.28c20.42-.93 34.42-13.93 28.06-24.03z"/><path id="Rectangle-Copy-14" class="cls-43" d="M384.13 148.21l7.68-1.26q4.11 19.91-14.87 22.65a70.86 70.86 0 01-9.08.65c-1.53 0-1.63-1.3-.12-1.87 10.45-3.96 19.03-6.7 16.39-20.17z"/><path class="cls-17" d="M347.22 132.78q11.07-15.5 16.91-18.57 6-3.17 15.88 1.85l4.12 2.15q-7.78 14.55-11.33 11-2.67-2.67-4.67-3-5.22-.87-19.51 8.09c-1.43.9-2.4-.12-1.4-1.52z"/><path id="Rectangle-Copy-16" class="cls-47" d="M347.22 132.78q10.13-14.18 15.87-18s0 .14-.11.47c-.86 2.46-15.82 19.41-16.06 19a1.42 1.42 0 01.3-1.47z"/><path id="Rectangle-Copy-41" class="cls-47" d="M377.69 115a19.22 19.22 0 012.32 1.08l4.12 2.15q-7.78 14.55-11.33 11c-1.78-1.78-3.32-2.85-4.67-3-2.32-.23 6.68-12.23 9.56-11.23z"/><path d="M366.15 147.5c3.42 5.15 34.55 3.5 60.58-12.15s36.71-35.5 33-43-29-8.64-55 7-42 43-38.58 48.15z" fill="#0091ff" fill-rule="evenodd"/><path d="M452 114.05c-5.58 7-14 14.55-25.22 21.31a108.61 108.61 0 01-41.1 14.19c-10.29 1.27-17.89.35-19.48-2.05-1.71-2.57 1.42-10.69 8.24-20.12a106 106 0 0130.34-28A87 87 0 01435 87.86c12.9-2.13 22.56.08 24.75 4.5 2.09 4.25-.44 12.5-7.75 21.69z" opacity=".1" fill="#12326b" fill-rule="evenodd"/><path class="cls-44" d="M438 87.44c.32-.06.67-.08.86-.1 10.94-1.13 18.92 1 20.88 5 1.84 3.7.15 10.45-5.19 18.21-.32.47-.74 1-1 1.43-.38-6.64-9.39-19.81-15.55-24.54z"/><g mask="url(#mask-13)"><path d="M373.13 126.21l17 26h-28q2.81-8.82 4.68-13.26t6.32-12.74z" fill="#346672" fill-rule="evenodd"/></g><circle class="cls-52" cx="444.81" cy="88.95" r="1"/><circle id="Oval-Copy-31" class="cls-52" cx="447.81" cy="92.95" r="1"/><circle id="Oval-Copy-32" class="cls-52" cx="450.81" cy="96.95" r="1"/><path class="cls-53" d="M447.81 115c1.65.63 10.28-14.43 10.94-17s-.08-4.36-1.89-5 .95 5-9.05 21c-.3.43-.31.83 0 1z"/><circle id="Oval-Copy-35" class="cls-52" cx="453.81" cy="100.95" r="1"/><circle id="Oval-Copy-36" class="cls-52" cx="455.81" cy="104.95" r="1"/><path d="M354.81 146.39c3.44-3.44 6-4 9-3s6.31 6.06 5 10q-.76 2.3-10 5 2-3 0-3c-2 0-3 1.59-4 2a17.29 17.29 0 01-10 1 13.22 13.22 0 004-3c2.66-3.49 4-7 6-9z" fill="#f5a623" fill-rule="evenodd"/><path id="Rectangle-Copy-37" d="M359.4 146.57c2.26-2.17 4-2.53 5.92-1.9s4.16 3.84 3.3 6.34c-.51 1.45-5.67 3.11-9.81 3.94a21.66 21.66 0 01-7 .44c1.56-2.1 2.56-3.44 3-4a43.37 43.37 0 014.59-4.82z" style="isolation:isolate" opacity=".7" fill="#f2f2f2" fill-rule="evenodd"/><circle id="Oval-Copy-26" class="cls-56" cx="396.13" cy="128.21" r="7"/><path id="Combined-Shape-Copy-2" class="cls-47" d="M395.13 135.21a7 7 0 117-7 7 7 0 01-7 7zm0-1a6 6 0 10-6-6 6 6 0 006 6z"/><path class="cls-53" d="M395.88 133a4.88 4.88 0 004.93-4.81 4.74 4.74 0 00-1.19-3.14c-.46-.53-.34 2.93-2.1 4.74s-5.22 1.78-4.65 2.21a5 5 0 003.01 1zm22.93-7a9 9 0 006.83-14.87c-.85-1-.63 5.47-3.83 8.87-3 3.21-9.53 3.33-8.49 4.13a9 9 0 005.49 1.87z"/><path id="Combined-Shape" class="cls-57" d="M396.13 135.21a7 7 0 117-7 7 7 0 01-7 7zm0-1a6 6 0 10-6-6 6 6 0 006 6z"/><circle id="Oval-Copy-23" class="cls-56" cx="418.13" cy="116.21" r="14"/><path class="cls-53" d="M418.81 126a9 9 0 006.83-14.87c-.85-1-.63 5.47-3.83 8.87-3 3.21-9.53 3.33-8.49 4.13a9 9 0 005.49 1.87z"/><path id="Combined-Shape-Copy" class="cls-47" d="M416.13 131.21a14 14 0 1114-14 14 14 0 01-14 14zm0-2a12 12 0 10-12-12 12 12 0 0012 12z"/><path class="cls-57" d="M418.13 130.21a14 14 0 1114-14 14 14 0 01-14 14zm0-2a12 12 0 10-12-12 12 12 0 0012 12z"/><path class="cls-47" d="M366.15 147.5c1.44 2.17 15.74-18.7 27.66-32.55C404.64 102.36 413 97 418.54 92.5l-.8.26a71.77 71.77 0 00-13 6.59 106.09 106.09 0 00-28.94 26.13c-7.28 9.57-11 18.11-9.92 21.42a2.55 2.55 0 00.27.6z"/><path id="Oval-Copy-28" class="cls-47" d="M366.15 147.5c1.05 1.57 9.66-5.55 23.66-14.55.05 0 .18-.09.15-.1-2.15-.9-8.15-4.9-16-4.9-.08 0-.1.14-.15.21-6.4 9.1-9.32 16.84-7.66 19.34z"/><path d="M366.15 147.5c3.42 5.15 34.55 3.5 60.58-12.15 2.16-1.29 4.21-2.62 6.16-4a95.52 95.52 0 0015-12.66c10.47-11 3-4.43-23.05 11.22s-62.11 12.44-58.69 17.59z" opacity=".2" fill="#12326b" fill-rule="evenodd"/><path d="M386.94 149.5c-12.49 1.66-19.2.4-20.79-2-1.71-2.57 1.42-10.69 8.24-20.12z" fill="#346672"/><path class="cls-17" d="M357.67 151.72c10.46-8 17.94-13.86 20.46-15.51 4.3-2.83 7-4 10-4s1.67 2.33 1 3q-1.51 2.37-7.43 5.92c-1.09.65-16.61 9-23.11 11.83-1.82.79-2.36-.14-.92-1.24z"/><path id="Rectangle-Copy-17" class="cls-46" d="M383.81 137c4.3-2.83 1.32-4.74 4.32-4.74s1.67 2.33 1 3q-1.51 2.37-7.43 5.92c-1.09.65-16.61 9-23.11 11.83-1.82.74 22.7-14.41 25.22-16.01z"/></g></svg>